<?xml version="1.0" encoding="UTF-8" standalone="no"?>
<svg
   xmlns:osb="http://www.openswatchbook.org/uri/2009/osb"
   xmlns:dc="http://purl.org/dc/elements/1.1/"
   xmlns:cc="http://creativecommons.org/ns#"
   xmlns:rdf="http://www.w3.org/1999/02/22-rdf-syntax-ns#"
   xmlns:svg="http://www.w3.org/2000/svg"
   xmlns="http://www.w3.org/2000/svg"
   xmlns:sodipodi="http://sodipodi.sourceforge.net/DTD/sodipodi-0.dtd"
   xmlns:inkscape="http://www.inkscape.org/namespaces/inkscape"
   id="svg8"
   version="1.1"
   viewBox="0 0 279.40022 215.9"
   height="8.5in"
   width="11in"
   sodipodi:docname="logo_Online.svg"
   inkscape:version="0.92.2 (5c3e80d, 2017-08-06)">
  <sodipodi:namedview
     pagecolor="#ffffff"
     bordercolor="#666666"
     borderopacity="1"
     objecttolerance="10"
     gridtolerance="10"
     guidetolerance="10"
     inkscape:pageopacity="0"
     inkscape:pageshadow="2"
     inkscape:window-width="1366"
     inkscape:window-height="706"
     id="namedview16"
     showgrid="false"
     showguides="true"
     inkscape:guide-bbox="true"
     inkscape:zoom="1.5268135"
     inkscape:cx="329.43006"
     inkscape:cy="431.32423"
     inkscape:window-x="-8"
     inkscape:window-y="-8"
     inkscape:window-maximized="1"
     inkscape:current-layer="svg8"
     units="in"
     showborder="false"
     inkscape:snap-global="false" />
  <defs
     id="defs2">
    <inkscape:path-effect
       effect="perspective-envelope"
       up_left_point="120.43236,99.224682"
       up_right_point="124.395,99.744552"
       down_left_point="120.43236,103.2727"
       down_right_point="123.52855,104.96229"
       id="path-effect6368"
       is_visible="true"
       deform_type="envelope_deformation"
       horizontal_mirror="false"
       vertical_mirror="false"
       overflow_perspective="false" />
    <inkscape:path-effect
       effect="perspective-envelope"
       up_left_point="117.33479,97.780812"
       up_right_point="120.18234,98.387332"
       down_left_point="116.51166,101.75896"
       down_right_point="119.3592,103.05865"
       id="path-effect6366"
       is_visible="true"
       deform_type="envelope_deformation"
       horizontal_mirror="false"
       vertical_mirror="false"
       overflow_perspective="false" />
    <inkscape:path-effect
       effect="perspective-envelope"
       up_left_point="112.53456,96.572882"
       up_right_point="116.47636,97.179402"
       down_left_point="112.05801,100.54799"
       down_right_point="115.47993,101.63107"
       id="path-effect6364"
       is_visible="true"
       deform_type="envelope_deformation"
       horizontal_mirror="false"
       vertical_mirror="false"
       overflow_perspective="false" />
    <inkscape:path-effect
       effect="perspective-envelope"
       up_left_point="108.16601,95.517602"
       up_right_point="112.03357,95.777542"
       down_left_point="108.16601,99.472622"
       down_right_point="111.34041,100.33908"
       id="path-effect6362"
       is_visible="true"
       deform_type="perspective"
       horizontal_mirror="false"
       vertical_mirror="false"
       overflow_perspective="false" />
    <inkscape:path-effect
       effect="perspective-envelope"
       up_left_point="105.74884,94.044612"
       up_right_point="106.56585,94.304552"
       down_left_point="105.44558,99.295462"
       down_right_point="106.52252,99.425422"
       id="path-effect6360"
       is_visible="true"
       deform_type="perspective"
       horizontal_mirror="false"
       vertical_mirror="false"
       overflow_perspective="false" />
    <inkscape:path-effect
       effect="perspective-envelope"
       up_left_point="101.38735,93.934762"
       up_right_point="104.8172,95.191122"
       down_left_point="101.38735,99.309112"
       down_right_point="104.08072,99.005852"
       id="path-effect6358"
       is_visible="true"
       deform_type="perspective"
       horizontal_mirror="false"
       vertical_mirror="false"
       overflow_perspective="false" />
    <inkscape:path-effect
       effect="perspective-envelope"
       up_left_point="97.449609,93.948562"
       up_right_point="100.58719,94.165172"
       down_left_point="97.449609,97.982782"
       down_right_point="100.50054,98.675942"
       id="path-effect6356"
       is_visible="true"
       deform_type="perspective"
       horizontal_mirror="false"
       vertical_mirror="false"
       overflow_perspective="false" />
    <inkscape:path-effect
       effect="perspective-envelope"
       up_left_point="83.269598,92.935682"
       up_right_point="85.6915,92.935682"
       down_left_point="83.269598,98.572042"
       down_right_point="85.6915,97.965522"
       id="path-effect6354"
       is_visible="true"
       deform_type="perspective"
       horizontal_mirror="false"
       vertical_mirror="false"
       overflow_perspective="false" />
    <inkscape:path-effect
       effect="perspective-envelope"
       up_left_point="79.625633,94.425112"
       up_right_point="82.763169,93.948562"
       down_left_point="79.928892,98.979202"
       down_right_point="83.153074,98.632622"
       id="path-effect6350"
       is_visible="true"
       deform_type="perspective"
       horizontal_mirror="false"
       vertical_mirror="false"
       overflow_perspective="false" />
    <inkscape:path-effect
       effect="perspective-envelope"
       up_left_point="75.063543,95.639872"
       up_right_point="79.120066,94.990032"
       down_left_point="75.410125,100.11764"
       down_right_point="79.120066,99.034572"
       id="path-effect6348"
       is_visible="true"
       deform_type="perspective"
       horizontal_mirror="false"
       vertical_mirror="false"
       overflow_perspective="false" />
    <inkscape:path-effect
       effect="perspective-envelope"
       up_left_point="71.084891,96.349762"
       up_right_point="74.345937,95.699922"
       down_left_point="71.084891,101.17124"
       down_right_point="74.562551,100.34811"
       id="path-effect6346"
       is_visible="true"
       deform_type="envelope_deformation"
       horizontal_mirror="false"
       vertical_mirror="false"
       overflow_perspective="false" />
    <inkscape:path-effect
       effect="perspective-envelope"
       up_left_point="67.976476,97.822902"
       up_right_point="70.204417,96.826482"
       down_left_point="68.279736,102.14763"
       down_right_point="70.161094,101.06456"
       id="path-effect6344"
       is_visible="true"
       deform_type="envelope_deformation"
       horizontal_mirror="false"
       vertical_mirror="false"
       overflow_perspective="false" />
    <inkscape:path-effect
       effect="perspective-envelope"
       up_left_point="63.651244,98.036182"
       up_right_point="66.554331,96.649852"
       down_left_point="64.041149,104.42229"
       down_right_point="67.030882,103.16593"
       id="path-effect6342"
       is_visible="true"
       deform_type="envelope_deformation"
       horizontal_mirror="false"
       vertical_mirror="false"
       overflow_perspective="false" />
    <linearGradient
       id="linearGradient6006"
       osb:paint="solid">
      <stop
         style="stop-color:#000000;stop-opacity:1;"
         offset="0"
         id="stop6004" />
    </linearGradient>
    <linearGradient
       id="linearGradient5998"
       osb:paint="solid">
      <stop
         style="stop-color:#000000;stop-opacity:1;"
         offset="0"
         id="stop5996" />
    </linearGradient>
    <linearGradient
       id="linearGradient5992"
       osb:paint="solid">
      <stop
         style="stop-color:#000000;stop-opacity:1;"
         offset="0"
         id="stop5990" />
    </linearGradient>
    <linearGradient
       id="linearGradient5984"
       osb:paint="solid">
      <stop
         style="stop-color:#000000;stop-opacity:1;"
         offset="0"
         id="stop5982" />
    </linearGradient>
    <linearGradient
       id="linearGradient4542"
       osb:paint="solid">
      <stop
         style="stop-color:#000000;stop-opacity:1;"
         offset="0"
         id="stop4540" />
    </linearGradient>
  </defs>
  <metadata
     id="metadata5">
    <rdf:RDF>
      <cc:Work
         rdf:about="">
        <dc:format>image/svg+xml</dc:format>
        <dc:type
           rdf:resource="http://purl.org/dc/dcmitype/StillImage" />
        <dc:title></dc:title>
      </cc:Work>
    </rdf:RDF>
  </metadata>
  <path
     style="color:#000000;font-style:normal;font-variant:normal;font-weight:normal;font-stretch:normal;font-size:medium;line-height:normal;font-family:sans-serif;font-variant-ligatures:normal;font-variant-position:normal;font-variant-caps:normal;font-variant-numeric:normal;font-variant-alternates:normal;font-feature-settings:normal;text-indent:0;text-align:start;text-decoration:none;text-decoration-line:none;text-decoration-style:solid;text-decoration-color:#000000;letter-spacing:normal;word-spacing:normal;text-transform:none;writing-mode:lr-tb;direction:ltr;text-orientation:mixed;dominant-baseline:auto;baseline-shift:baseline;text-anchor:start;white-space:normal;shape-padding:0;clip-rule:nonzero;display:inline;overflow:visible;visibility:visible;opacity:0.5;isolation:auto;mix-blend-mode:normal;color-interpolation:sRGB;color-interpolation-filters:linearRGB;solid-color:#000000;solid-opacity:1;vector-effect:none;fill:#030403;fill-opacity:0.98431373;fill-rule:nonzero;stroke:none;stroke-width:3.4395833;stroke-linecap:round;stroke-linejoin:round;stroke-miterlimit:4;stroke-dasharray:none;stroke-dashoffset:0;stroke-opacity:1;color-rendering:auto;image-rendering:auto;shape-rendering:auto;text-rendering:auto;enable-background:accumulate"
     d="m 93.516256,86.650972 c -12.624829,0.0144 -24.485021,2.76542 -32.283302,7.7065 a 1.7199635,1.7199635 0 0 0 -0.799433,1.45263 v 2.38332 c -0.0051,0.003 -0.0099,0.007 -0.01498,0.01 l -0.09457,-0.0496 0.01913,0.0982 c -1.07546,0.68155 -2.088976,1.39007 -2.982765,2.147668 a 1.7199635,1.7199635 0 0 0 -0.607713,1.31207 v 12.78475 a 1.7199635,1.7199635 0 0 0 2.822048,1.32034 c 1.419175,-1.18503 3.174265,-2.31467 5.225005,-3.34243 a 1.7199635,1.7199635 0 0 0 0.949278,-1.53739 v -2.26342 c 6.99793,-3.48676 16.982693,-5.59142 27.50168,-5.61827 10.116836,0.0181 19.763196,1.95671 26.737906,5.21829 v 2.91404 a 1.7199635,1.7199635 0 0 0 0.92604,1.52549 c 2.07045,1.07726 3.82039,2.25901 5.20795,3.49281 a 1.7199635,1.7199635 0 0 0 2.86236,-1.28519 v -13.24261 a 1.7199635,1.7199635 0 0 0 -0.61185,-1.31517 c -0.53628,-0.451818 -1.14864,-0.872778 -1.75131,-1.297588 l 0.006,-0.032 -0.0248,0.0114 v -3.25459 a 1.7199635,1.7199635 0 0 0 -0.80099,-1.45365 c -7.80652,-4.93222 -19.66519,-7.67579 -32.282271,-7.68533 a 1.7199635,1.7199635 0 0 0 -0.0036,0 z m 0.0021,1.71979 a 39.158333,18.388541 0 0 1 31.364954,7.41919 v 4.03592 l -0.19017,0.0863 v 8.925558 c -0.68459,-0.41978 -2.48599,-1.4257 -2.97604,-1.70429 l -0.009,0.84026 v -0.80822 a 39.158333,18.388541 0 0 0 -28.454361,-5.83014 39.158333,18.388541 0 0 0 -29.201319,6.24613 v -10e-4 a 39.158333,18.388541 0 0 0 -0.02066,0.0114 39.158333,18.388541 0 0 0 -0.0026,0.002 39.158333,18.388541 0 0 0 -1.798857,1.00976 l 1.798913,2.13215 v 0.20153 a 39.158333,18.388541 0 0 0 -5.556766,3.55949 v -12.78476 a 39.158333,18.388541 0 0 1 2.218468,-1.65727 l 1.567862,8.12406 -0.08785,-9.057328 -0.01757,-0.009 v -3.30161 a 39.158333,18.388541 0 0 1 31.36501,-7.43934 z m 32.745284,12.550658 a 39.158333,18.388541 0 0 1 1.00149,0.75654 v 13.24261 a 39.158333,18.388541 0 0 0 -5.55682,-3.73311 v -0.0233 l 3.19567,-2.19935 c -0.0336,-0.0222 -0.12429,-0.0745 -0.1726,-0.10439 z"
     id="path6071"
     inkscape:connector-curvature="0" />
  <path
     style="opacity:0.5;fill:#3737c8;stroke:#030403;stroke-width:0.05291667;stroke-linecap:round;stroke-linejoin:round;stroke-miterlimit:4;stroke-dasharray:none;stroke-dashoffset:0;stroke-opacity:0.98431373"
     d="m 93.518322,90.487432 a 39.158333,18.388541 0 0 0 -31.36501,7.43934 v 8.454778 a 39.158333,18.388542 0 0 1 30.835843,-7.162868 39.158333,18.388542 0 0 1 31.629595,7.621238 v -9.084198 a 39.158333,18.388541 0 0 0 -31.100428,-7.26829 z"
     id="path6047"
     inkscape:connector-curvature="0" />
  <path
     inkscape:connector-curvature="0"
     id="path6087"
     style="font-style:normal;font-weight:normal;font-size:7.05555534px;line-height:1.25;font-family:sans-serif;letter-spacing:0px;word-spacing:0px;fill:#000000;fill-opacity:1;stroke:none;stroke-width:0.26458332"
     d="m 67.030882,103.16593 c 0,0 -2.989733,1.25636 -2.989733,1.25636 0,0 -0.389905,-6.386108 -0.389905,-6.386108 0,0 2.903087,-1.38633 2.903087,-1.38633 0,0 -0.454825,1.180747 -0.454825,1.180747 0,0 -1.814163,0.683717 -1.814163,0.683717 0,0 0.111628,1.757024 0.111628,1.757024 0,0 2.344267,-1.06583 2.344267,-1.06583 0,0 0.05633,0.770205 0.05633,0.770205 0,0 -2.352442,1.053575 -2.352442,1.053575 0,0 0.151302,2.38148 0.151302,2.38148 0,0 1.984399,-1.0167 1.984399,-1.0167 0,0 0.450056,0.77186 0.450056,0.77186 z"
     inkscape:path-effect="#path-effect6342"
     inkscape:original-d="m 67.030882,103.16593 h -3.379638 v -5.129748 h 3.379638 l -0.606519,0.73631 -2.09099,-0.12997 v 1.405588 h 2.697509 v 0.60634 h -2.697509 v 1.90514 l 2.264281,-0.12997 z"
     sodipodi:nodetypes="ccccccccccccc" />
  <path
     inkscape:connector-curvature="0"
     id="path6089"
     style="font-style:normal;font-weight:normal;font-size:7.05555534px;line-height:1.25;font-family:sans-serif;letter-spacing:0px;word-spacing:0px;fill:#000000;fill-opacity:1;stroke:none;stroke-width:0.26458332"
     d="m 70.196466,97.604224 c 0,0 -0.03105,0.01452 -0.03105,0.01452 -0.0868,0.01538 -0.171712,0.03733 -0.254658,0.06587 -0.08094,0.02505 -0.17749,0.06367 -0.289582,0.115883 -0.180593,0.08412 -0.353732,0.21509 -0.518481,0.393154 -0.163594,0.175813 -0.318552,0.378495 -0.464431,0.608157 0,0 0.148928,3.053689 0.148928,3.053689 0,0 -0.507454,0.29213 -0.507454,0.29213 0,0 -0.30326,-4.324728 -0.30326,-4.324728 0,0 0.600937,-0.268762 0.600937,-0.268762 0,0 0.03099,0.635393 0.03099,0.635393 0.223911,-0.338664 0.425438,-0.595665 0.602521,-0.771516 0.180405,-0.179047 0.365921,-0.31086 0.555578,-0.395682 0.104418,-0.0467 0.180065,-0.07674 0.226921,-0.09014 0.04684,-0.01582 0.117042,-0.03589 0.210531,-0.06023 0,0 -0.0075,0.732257 -0.0075,0.732257 z"
     inkscape:path-effect="#path-effect6344"
     inkscape:original-d="m 70.377707,98.529092 h -0.03445 q -0.144694,-0.0344 -0.282498,-0.0482 -0.134359,-0.0172 -0.320394,-0.0172 -0.299723,0 -0.578776,0.13436 -0.279053,0.13091 -0.537435,0.34107 v 2.731958 h -0.647678 v -3.848178 h 0.647678 v 0.56845 q 0.385851,-0.31006 0.678684,-0.43753 0.296278,-0.13092 0.602891,-0.13092 0.16881,0 0.244602,0.0103 0.07579,0.007 0.227377,0.031 z" />
  <path
     inkscape:connector-curvature="0"
     id="path6091"
     style="font-style:normal;font-weight:normal;font-size:7.05555534px;line-height:1.25;font-family:sans-serif;letter-spacing:0px;word-spacing:0px;fill:#000000;fill-opacity:1;stroke:none;stroke-width:0.26458332"
     d="m 74.562551,100.34811 c 0,0 -0.647677,0.1533 -0.647677,0.1533 0,0 -0.09766,-2.592974 -0.09766,-2.592974 -0.0079,-0.209289 -0.02518,-0.402874 -0.05181,-0.580807 -0.02663,-0.180724 -0.06808,-0.317307 -0.12432,-0.409768 -0.05865,-0.103064 -0.140088,-0.171242 -0.244322,-0.204653 -0.104166,-0.03636 -0.237785,-0.03776 -0.400983,-0.0042 -0.16755,0.03442 -0.34158,0.122648 -0.522484,0.265132 -0.181434,0.142897 -0.355334,0.313637 -0.521866,0.512439 0,0 0.04107,3.469816 0.04107,3.469816 0,0 -0.647677,0.15329 -0.647677,0.15329 0,0 -0.259937,-4.629703 -0.259937,-4.629703 0,0 0.852609,-0.170819 0.852609,-0.170819 0,0 0.0061,0.515905 0.0061,0.515905 0.188293,-0.241185 0.382764,-0.438619 0.583734,-0.592569 0.200329,-0.153486 0.406861,-0.25122 0.620074,-0.293708 0.389815,-0.07768 0.692802,0.01106 0.910252,0.265195 0.21917,0.252768 0.342294,0.655299 0.368081,1.208648 0,0 0.136804,2.935511 0.136804,2.935511 z"
     inkscape:path-effect="#path-effect6346"
     inkscape:original-d="m 74.475905,100.08817 h -0.647677 v -2.191078 c 0,-0.17685 -0.01034,-0.34222 -0.03101,-0.4961 -0.02067,-0.15617 -0.05857,-0.2779 -0.113688,-0.36518 -0.05742,-0.0965 -0.140102,-0.16766 -0.248047,-0.21359 -0.107947,-0.0483 -0.248047,-0.0724 -0.420302,-0.0724 -0.176848,0 -0.361735,0.0436 -0.55466,0.13091 -0.192925,0.0873 -0.377812,0.19867 -0.554661,0.33418 v 2.873208 h -0.647678 l -0.259937,-3.848178 h 0.907615 v 0.4272 c 0.202113,-0.16767 0.411115,-0.29858 0.627008,-0.39274 0.215893,-0.0942 0.437527,-0.14125 0.664903,-0.14125 0.415708,0 0.732657,0.12517 0.950846,0.37551 0.218189,0.25035 0.327284,0.61093 0.327284,1.08176 z"
     sodipodi:nodetypes="ccscccsccccccccsccc" />
  <path
     inkscape:connector-curvature="0"
     id="path6093"
     style="font-style:normal;font-weight:normal;font-size:7.05555534px;line-height:1.25;font-family:sans-serif;letter-spacing:0px;word-spacing:0px;fill:#000000;fill-opacity:1;stroke:none;stroke-width:0.26458332"
     d="m 79.120066,97.16799 c 0,0 -3.067431,0.708999 -3.067431,0.708999 0.01554,0.254114 0.07086,0.463787 0.165193,0.629387 0.09304,0.16116 0.21338,0.280562 0.360424,0.358901 0.139882,0.07637 0.300869,0.117541 0.482477,0.124159 0.18172,0.0059 0.377258,-0.02024 0.586361,-0.07769 0.273055,-0.07502 0.541738,-0.199144 0.806928,-0.371635 0.264055,-0.173104 0.449684,-0.322016 0.559153,-0.448092 0,0 0.03348,-0.0087 0.03348,-0.0087 0,0 9.85e-4,0.67073 9.85e-4,0.67073 -0.209921,0.145774 -0.426631,0.280281 -0.650525,0.403507 -0.226597,0.1247 -0.468396,0.22483 -0.726437,0.300161 -0.677426,0.197766 -1.235856,0.187185 -1.665885,-0.04466 -0.447328,-0.243463 -0.703994,-0.707877 -0.757576,-1.400148 -0.0545,-0.704141 0.119453,-1.319314 0.520441,-1.82728 0.400401,-0.50412 0.937115,-0.808663 1.592676,-0.913681 0.584464,-0.09363 1.02264,0.0037 1.322966,0.282754 0.293427,0.270042 0.436765,0.691511 0.436765,1.261071 0,0 10e-7,0.35223 10e-7,0.35223 z m -0.639223,-0.361318 c -0.0068,-0.353232 -0.100782,-0.612637 -0.284558,-0.776835 -0.184809,-0.167841 -0.46841,-0.219027 -0.854986,-0.149899 -0.398675,0.07129 -0.718343,0.245285 -0.952644,0.52187 -0.232902,0.277665 -0.356311,0.590296 -0.369119,0.933785 0,0 2.461307,-0.528921 2.461307,-0.528921 z"
     inkscape:path-effect="#path-effect6348"
     inkscape:original-d="m 79.120066,97.088092 h -2.835313 q 0,0.35484 0.106798,0.62012 0.106798,0.26182 0.292833,0.43063 0.179145,0.16537 0.423747,0.24805 0.248046,0.0827 0.544325,0.0827 0.392741,0 0.788927,-0.15503 0.399631,-0.15847 0.56844,-0.31005 h 0.03445 v 0.70624 q -0.327284,0.1378 -0.668348,0.23082 -0.341065,0.093 -0.71658,0.093 -0.957737,0 -1.495172,-0.51677 -0.537434,-0.5202 -0.537434,-1.4745 0,-0.94395 0.513319,-1.49861 0.516764,-0.55466 1.357367,-0.55466 0.778592,0 1.198894,0.45475 0.423746,0.45475 0.423746,1.29191 z m -0.630452,-0.49609 q -0.0034,-0.50988 -0.258382,-0.78893 -0.251492,-0.27905 -0.768257,-0.27905 -0.520209,0 -0.830268,0.30661 -0.306613,0.30661 -0.347954,0.76137 z" />
  <path
     inkscape:connector-curvature="0"
     id="path6095"
     style="font-style:normal;font-weight:normal;font-size:7.05555534px;line-height:1.25;font-family:sans-serif;letter-spacing:0px;word-spacing:0px;fill:#000000;fill-opacity:1;stroke:none;stroke-width:0.26458332"
     d="m 83.034877,97.212679 c 0.03437,0.412858 -0.1145,0.566827 -0.411977,0.86834 -0.294011,0.300265 -0.697017,0.683519 -1.237526,0.74162 -0.303594,0.03263 -0.58392,0.02368 -0.841204,-0.0265 -0.253624,-0.05283 -0.37653,-0.126295 -0.550183,-0.200519 0,0 -0.145467,-0.823382 -0.145467,-0.823382 0,0 0.03558,-0.0042 0.03558,-0.0042 0.223579,0.150985 0.469996,0.264409 0.73949,0.339961 0.270963,0.07339 0.528807,0.09637 0.773141,0.0686 0.304561,-0.03461 0.539893,-0.115494 0.704932,-0.242835 0.165399,-0.127618 0.239057,-0.306987 0.220727,-0.537602 -0.01404,-0.176619 -0.07177,-0.304401 -0.172991,-0.383452 -0.100958,-0.07885 -0.286677,-0.133383 -0.556229,-0.163692 -0.09947,-0.01151 -0.229446,-0.02305 -0.38968,-0.03461 -0.157284,-0.01183 -0.300995,-0.02806 -0.431235,-0.04855 -0.35934,-0.05686 -0.61831,-0.173121 -0.778428,-0.348551 -0.157165,-0.177484 -0.244913,-0.407628 -0.263774,-0.690469 -0.0118,-0.176982 0.0099,-0.348082 0.06495,-0.513489 0.05742,-0.165689 0.149943,-0.319733 0.277709,-0.462317 0.123409,-0.13953 0.284159,-0.25903 0.482607,-0.358604 0.201273,-0.102804 0.429694,-0.173758 0.685723,-0.212645 0.240414,-0.03652 0.486858,-0.04133 0.739521,-0.0142 0.256262,0.0243 0.472076,0.06955 0.646927,0.135745 0,0 0.06504,0.789553 0.06504,0.789553 0,0 -0.03715,0.0052 -0.03715,0.0052 -0.189272,-0.113873 -0.413903,-0.199511 -0.673454,-0.257086 -0.25827,-0.05987 -0.506578,-0.07216 -0.745227,-0.03733 -0.247144,0.03607 -0.451262,0.117862 -0.612957,0.245394 -0.161527,0.124681 -0.235111,0.287243 -0.220985,0.488308 0.01252,0.178208 0.07312,0.305721 0.182025,0.382459 0.106827,0.0773 0.275122,0.12946 0.5055,0.156476 0.127892,0.01449 0.270689,0.02719 0.428511,0.03798 0.160772,0.01039 0.294963,0.02187 0.402344,0.0343 0.328537,0.03671 0.589489,0.140479 0.781912,0.31182 0.193674,0.174915 0.304519,0.42629 0.331818,0.75425 0,0 8e-6,1.1e-5 8e-6,1.1e-5 z"
     inkscape:path-effect="#path-effect6350"
     inkscape:original-d="m 82.763169,96.780452 c 0,0.3514 -0.145842,0.46635 -0.437527,0.69142 -0.289388,0.22508 -0.685574,0.51091 -1.188558,0.51091 -0.284794,0 -0.546621,-0.0333 -0.785481,-0.0999 -0.236563,-0.0689 -0.348585,-0.14355 -0.509356,-0.22394 l -0.08665,-0.72691 h 0.03445 c 0.204409,0.15388 0.431786,0.27675 0.682129,0.36862 0.250343,0.0896 0.490352,0.13436 0.720025,0.13436 0.284795,0 0.507577,-0.0459 0.668348,-0.1378 0.160771,-0.0919 0.241157,-0.23656 0.241157,-0.43408 0,-0.15159 -0.04364,-0.26642 -0.130913,-0.34451 -0.08728,-0.0781 -0.254937,-0.14469 -0.502984,-0.19982 -0.09187,-0.0207 -0.212448,-0.0448 -0.361735,-0.0723 -0.146991,-0.0275 -0.28135,-0.0574 -0.403077,-0.0896 -0.337619,-0.0896 -0.577627,-0.22049 -0.720024,-0.39274 -0.140101,-0.17455 -0.210151,-0.38814 -0.210151,-0.64079 0,-0.15847 0.03215,-0.30776 0.09646,-0.44786 0.06661,-0.1401 0.166515,-0.26527 0.299724,-0.37551 0.128617,-0.10795 0.291684,-0.19293 0.489203,-0.25494 0.199816,-0.0643 0.422599,-0.0965 0.668349,-0.0965 0.229673,0 0.461642,0.0287 0.695909,0.0861 0.236563,0.0551 0.432934,0.12289 0.589111,0.20327 v 0.69246 h -0.03445 c -0.165365,-0.12173 -0.366328,-0.22393 -0.602891,-0.30661 -0.236563,-0.085 -0.468533,-0.12747 -0.69591,-0.12747 -0.236563,0 -0.436378,0.0459 -0.599446,0.1378 -0.163068,0.0896 -0.244602,0.22393 -0.244602,0.40308 0,0.15847 0.04938,0.2779 0.148139,0.35829 0.09646,0.0804 0.25264,0.14584 0.468533,0.19637 0.11943,0.0275 0.25264,0.0551 0.399631,0.0827 0.149287,0.0275 0.273311,0.0528 0.37207,0.0758 0.300872,0.0689 0.532842,0.18718 0.69591,0.35485 0.163067,0.16995 0.244601,0.39503 0.244601,0.67524 z"
     sodipodi:nodetypes="ccscccccscscccccscccscccccscsccccccc" />
  <path
     inkscape:connector-curvature="0"
     id="path6097"
     style="font-style:normal;font-weight:normal;font-size:7.05555534px;line-height:1.25;font-family:sans-serif;letter-spacing:0px;word-spacing:0px;fill:#000000;fill-opacity:1;stroke:none;stroke-width:0.26458332"
     d="m 85.6915,97.855322 c -0.109219,0.05903 -0.23011,0.115534 -0.363074,0.169565 -0.132564,0.0542 -0.252697,0.09484 -0.359931,0.121698 -0.383092,0.09594 -0.728261,0.115578 -0.94005,-0.06087 -0.215996,-0.179919 -0.279014,-0.584695 -0.279014,-1.096006 0,0 0,-2.244264 0,-2.244264 0,0 -0.479833,0.03942 -0.479833,0.03942 0,0 0,-0.609967 0,-0.609967 0,0 0.479833,-0.02642 0.479833,-0.02642 0,0 0,-1.212801 0,-1.212801 0,0 0.673893,0 0.673893,0 0,0 0,1.175696 0,1.175696 0,0 1.268176,-0.06983 1.268176,-0.06983 0,0 0,0.54433 0,0.54433 0,0 -1.268176,0.104196 -1.268176,0.104196 0,0 0,1.864271 0,1.864271 0,0.214872 0.0046,0.382489 0.01389,0.502767 0.0093,0.117727 0.04156,0.223337 0.09673,0.316535 0.05032,0.08645 0.118551,0.14311 0.204353,0.170213 0.08734,0.02395 0.218093,0.0165 0.390637,-0.02183 0.09916,-0.02203 0.201616,-0.05995 0.307263,-0.113622 0.104561,-0.05533 0.179181,-0.09812 0.224512,-0.128691 0,0 0.03079,-0.0066 0.03079,-0.0066 0,0 4e-6,0.582249 4e-6,0.582249 z"
     inkscape:path-effect="#path-effect6354"
     inkscape:original-d="m 85.6915,97.855322 c -0.121727,0.0321 -0.254937,0.0585 -0.399631,0.0792 -0.142397,0.0207 -0.269866,0.031 -0.382406,0.031 -0.392741,0 -0.734638,-0.0623 -0.939047,-0.27363 -0.204409,-0.2113 -0.263291,-0.59339 -0.263291,-1.05962 v -2.04639 h -0.437527 v -0.54433 h 0.437527 v -1.10587 h 0.647678 v 1.10587 H 85.6915 v 0.54433 h -1.336697 v 1.75355 c 0,0.20211 0.0046,0.36059 0.01378,0.47543 0.0092,0.11254 0.04134,0.21819 0.09646,0.31695 0.05053,0.0919 0.119429,0.15962 0.206706,0.20326 0.08957,0.0413 0.22508,0.062 0.406521,0.062 0.105649,0 0.215892,-0.0149 0.330729,-0.0448 0.114837,-0.0321 0.197519,-0.0585 0.248047,-0.0792 h 0.03445 z"
     sodipodi:nodetypes="ccscsccccccccccscccscccc" />
  <path
     inkscape:connector-curvature="0"
     id="path6099"
     style="font-style:normal;font-weight:normal;font-size:7.05555534px;line-height:1.25;font-family:sans-serif;letter-spacing:0px;word-spacing:0px;fill:#000000;fill-opacity:1;stroke:none;stroke-width:0.26458332"
     d="m 89.756712,95.967402 q 0,0.94051 -0.482314,1.48484 -0.482313,0.54432 -1.291911,0.54432 -0.816487,0 -1.2988,-0.54432 -0.478869,-0.54433 -0.478869,-1.48484 0,-0.94051 0.478869,-1.48483 0.482313,-0.54777 1.2988,-0.54777 0.809598,0 1.291911,0.54777 0.482314,0.54432 0.482314,1.48483 z m -0.668349,0 q 0,-0.74758 -0.292833,-1.10932 -0.292833,-0.36518 -0.813043,-0.36518 -0.527099,0 -0.819932,0.36518 -0.289388,0.36174 -0.289388,1.10932 0,0.72347 0.292833,1.09899 0.292833,0.37207 0.816487,0.37207 0.516765,0 0.809598,-0.36863 0.296278,-0.37207 0.296278,-1.10243 z" />
  <path
     inkscape:connector-curvature="0"
     id="path6101"
     style="font-style:normal;font-weight:normal;font-size:7.05555534px;line-height:1.25;font-family:sans-serif;letter-spacing:0px;word-spacing:0px;fill:#000000;fill-opacity:1;stroke:none;stroke-width:0.26458332"
     d="m 96.674464,97.889772 h -3.379638 v -5.12975 h 3.379638 v 0.60634 h -2.697509 v 1.40559 h 2.697509 v 0.60634 h -2.697509 v 1.90514 h 2.697509 z" />
  <path
     inkscape:connector-curvature="0"
     id="path6103"
     style="font-style:normal;font-weight:normal;font-size:7.05555534px;line-height:1.25;font-family:sans-serif;letter-spacing:0px;word-spacing:0px;fill:#000000;fill-opacity:1;stroke:none;stroke-width:0.26458332"
     d="m 100.5258,97.357852 c -0.007,0.387486 -0.1789,0.669922 -0.50789,0.845241 -0.318119,0.171393 -0.738425,0.19543 -1.252042,0.07874 -0.282347,-0.06415 -0.536566,-0.155384 -0.764238,-0.273237 -0.221801,-0.117734 -0.405301,-0.231648 -0.552021,-0.342291 0,0 0,-0.714979 0,-0.714979 0,0 0.03145,0.0059 0.03145,0.0059 0.188027,0.18831 0.400162,0.352316 0.637612,0.491978 0.241574,0.13975 0.477446,0.23394 0.707395,0.281351 0.290706,0.05994 0.523109,0.05938 0.694196,-0.0033 0.173435,-0.06352 0.262592,-0.201577 0.26569,-0.413927 0.0024,-0.16335 -0.04326,-0.295565 -0.13652,-0.395958 -0.09273,-0.09982 -0.270447,-0.200858 -0.529958,-0.302146 -0.09492,-0.03731 -0.218554,-0.08272 -0.370147,-0.135978 -0.14765,-0.05232 -0.281208,-0.104516 -0.401071,-0.15668 -0.327095,-0.142621 -0.554806,-0.310078 -0.688084,-0.503694 -0.130064,-0.194063 -0.194697,-0.417724 -0.194672,-0.672742 1.6e-5,-0.16037 0.02981,-0.308645 0.08967,-0.445245 0.0624,-0.137282 0.156644,-0.257368 0.283472,-0.360435 0.123819,-0.102188 0.282537,-0.178878 0.477401,-0.229821 0.200273,-0.05406 0.42704,-0.07276 0.681462,-0.05519 0.242183,0.01672 0.490833,0.06566 0.746046,0.147669 0.262417,0.08113 0.483477,0.17451 0.661107,0.279937 0,0 -0.0142,0.784412 -0.0142,0.784412 0,0 -0.0395,-0.0043 -0.0395,-0.0043 -0.18585,-0.156632 -0.409616,-0.293641 -0.669439,-0.410823 -0.255278,-0.117663 -0.501805,-0.1867 -0.73973,-0.208346 -0.243167,-0.02212 -0.445485,0.0081 -0.608568,0.08969 -0.160899,0.07806 -0.240916,0.209803 -0.241651,0.39569 -6.49e-4,0.164081 0.04675,0.293432 0.142636,0.38875 0.09424,0.09563 0.248479,0.184141 0.464805,0.266045 0.121136,0.04542 0.257531,0.09321 0.409627,0.14349 0.156187,0.05109 0.287243,0.09655 0.392436,0.136168 0.32533,0.121236 0.580074,0.288364 0.760104,0.500998 0.18191,0.217461 0.27061,0.482687 0.26465,0.793019 0,0 -6e-5,0 -6e-5,0 z"
     inkscape:path-effect="#path-effect6356"
     inkscape:original-d="m 100.45717,96.780452 q 0,0.5271 -0.43752,0.86471 -0.434082,0.33762 -1.188558,0.33762 -0.427191,0 -0.785481,-0.0999 -0.354845,-0.10336 -0.596002,-0.22394 v -0.72691 h 0.03445 q 0.306614,0.23082 0.682129,0.36862 0.375515,0.13436 0.720025,0.13436 0.427192,0 0.668348,-0.1378 0.241157,-0.1378 0.241157,-0.43408 0,-0.22738 -0.130914,-0.34451 -0.130913,-0.11713 -0.502984,-0.19982 -0.137803,-0.031 -0.361735,-0.0723 -0.220486,-0.0413 -0.403076,-0.0896 -0.506429,-0.13436 -0.720025,-0.39274 -0.21015,-0.26182 -0.21015,-0.64079 0,-0.23771 0.09646,-0.44786 0.09991,-0.21015 0.299724,-0.37551 0.192925,-0.16192 0.489203,-0.25494 0.299723,-0.0965 0.668349,-0.0965 0.344509,0 0.695909,0.0861 0.354841,0.0827 0.589111,0.20327 v 0.69246 h -0.0344 q -0.24805,-0.18259 -0.602892,-0.30661 -0.354845,-0.12747 -0.69591,-0.12747 -0.354845,0 -0.599446,0.1378 -0.244602,0.13436 -0.244602,0.40308 0,0.23771 0.148139,0.35829 0.144694,0.12058 0.468533,0.19637 0.179145,0.0413 0.399631,0.0827 0.223931,0.0413 0.37207,0.0758 0.451311,0.10335 0.695907,0.35485 0.2446,0.25493 0.2446,0.67524 z" />
  <path
     inkscape:connector-curvature="0"
     id="path6105"
     style="font-style:normal;font-weight:normal;font-size:7.05555534px;line-height:1.25;font-family:sans-serif;letter-spacing:0px;word-spacing:0px;fill:#000000;fill-opacity:1;stroke:none;stroke-width:0.26458332"
     d="m 104.50266,96.820324 c -0.0443,0.229608 -0.11319,0.431317 -0.20686,0.60877 -0.0926,0.174273 -0.24922,0.406927 -0.38168,0.525716 -0.1247,0.113779 -0.22171,0.115449 -0.38249,0.18051 -0.16292,0.06513 -0.33606,0.100108 -0.52163,0.103851 -0.16751,0.0034 -0.32334,-0.0095 -0.46662,-0.03957 -0.14607,-0.03113 -0.29946,-0.08209 -0.46132,-0.154371 0,0 -0.0555,1.191917 -0.0555,1.191917 0,0 -0.63918,0.07197 -0.63918,0.07197 0,0 0,-5.226662 0,-5.226662 0,0 0.86509,0.305501 0.86509,0.305501 0,0 -0.0228,0.488994 -0.0228,0.488994 0.21293,-0.106539 0.44281,-0.174875 0.6863,-0.205814 0.23765,-0.03165 0.47478,-0.0025 0.70834,0.08303 0.41383,0.151586 0.68234,0.428825 0.82407,0.816273 0.13244,0.355111 0.14656,0.771976 0.0543,1.249861 0,0 -10e-6,3e-5 -10e-6,3e-5 z m -0.47211,-0.0574 c 0.0613,-0.375521 0.048,-0.681849 -0.0456,-0.914804 -0.0988,-0.245813 -0.29268,-0.415611 -0.59179,-0.503255 -0.17849,-0.0523 -0.36915,-0.06448 -0.57128,-0.03434 -0.20844,0.0311 -0.41602,0.09326 -0.62111,0.187311 0,0 -0.0984,2.111499 -0.0984,2.111499 0.18251,0.07654 0.33328,0.127636 0.45573,0.155272 0.12123,0.02697 0.25553,0.04197 0.40206,0.04554 0.30074,0.0073 0.53489,-0.0754 0.7148,-0.246438 0.17795,-0.169178 0.29532,-0.431484 0.3556,-0.800777 0,0 0,-8e-6 0,-8e-6 z"
     inkscape:path-effect="#path-effect6358"
     inkscape:original-d="m 104.77388,95.919172 c 0,0.31235 -0.0448,0.5983 -0.13436,0.85783 -0.0896,0.25723 -0.25922,0.60539 -0.42228,0.78454 -0.15159,0.16996 -0.28741,0.17205 -0.49411,0.26621 -0.20441,0.0919 -0.42146,0.13781 -0.65113,0.13781 -0.19981,0 -0.38125,-0.0218 -0.54432,-0.0655 -0.16077,-0.0437 -0.32499,-0.11142 -0.49265,-0.20326 v 1.61231 h -0.64768 v -5.26756 h 0.64768 v 0.40308 c 0.17225,-0.14469 0.36518,-0.26527 0.57877,-0.36173 0.21589,-0.0988 0.44557,-0.14814 0.68902,-0.14814 0.46394,0 0.82453,0.1757 1.08176,0.5271 0.25953,0.3491 0.3893,0.83486 0.3893,1.45727 z m -0.66835,0.0172 c 0,-0.46394 -0.0792,-0.81075 -0.23771,-1.04042 -0.15847,-0.22967 -0.40193,-0.34451 -0.73036,-0.34451 -0.18603,0 -0.37322,0.0402 -0.56155,0.12058 -0.18833,0.0804 -0.36863,0.18604 -0.54088,0.31695 v 2.18074 c 0.18374,0.0827 0.34107,0.13895 0.47198,0.16881 0.13321,0.0299 0.28364,0.0448 0.4513,0.0448 0.36059,0 0.64194,-0.12173 0.84405,-0.36518 0.20211,-0.24345 0.30317,-0.60404 0.30317,-1.08176 z"
     sodipodi:nodetypes="scccsccccccccscsscssscccsssc" />
  <path
     inkscape:connector-curvature="0"
     id="path6107"
     style="font-style:normal;font-weight:normal;font-size:7.05555534px;line-height:1.25;font-family:sans-serif;letter-spacing:0px;word-spacing:0px;fill:#000000;fill-opacity:1;stroke:none;stroke-width:0.26458332"
     d="m 106.56139,94.831606 c 0,0 -0.84349,-0.251196 -0.84349,-0.251196 0,0 0.0309,-0.535798 0.0309,-0.535798 0,0 0.81701,0.25994 0.81701,0.25994 0,0 -0.004,0.527054 -0.004,0.527054 z m -0.0975,4.586743 c 0,0 -0.95494,-0.115237 -0.95494,-0.115237 0,0 0.2282,-4.161302 0.2282,-4.161302 0,0 0.77196,0.213878 0.77196,0.213878 0,0 -0.0452,4.062661 -0.0452,4.062661 z"
     inkscape:path-effect="#path-effect6360"
     inkscape:original-d="m 106.4792,94.716402 h -0.73036 v -0.67179 h 0.73036 z m -0.0413,4.49241 h -0.64768 v -3.84818 h 0.64768 z" />
  <path
     inkscape:connector-curvature="0"
     id="path6109"
     style="font-style:normal;font-weight:normal;font-size:7.05555534px;line-height:1.25;font-family:sans-serif;letter-spacing:0px;word-spacing:0px;fill:#000000;fill-opacity:1;stroke:none;stroke-width:0.26458332"
     d="m 111.3404,100.33908 c 0,0 -0.72051,-0.19667 -0.72051,-0.19667 0,0 0.26087,-2.241773 0.26087,-2.241773 0.0235,-0.201914 0.0332,-0.395795 0.0286,-0.580791 -0.004,-0.190167 -0.0348,-0.343557 -0.0917,-0.458486 -0.0587,-0.126847 -0.15202,-0.226271 -0.27921,-0.297558 -0.12593,-0.07362 -0.29198,-0.12099 -0.49587,-0.14221 -0.20531,-0.02137 -0.41877,0.0088 -0.63851,0.08836 -0.21348,0.07732 -0.41347,0.180699 -0.60017,0.30879 0,0 -0.0734,2.80792 -0.0734,2.80792 0,0 -0.56451,-0.154081 -0.56451,-0.154081 0,0 0,-3.829392 0,-3.829392 0,0 0.66731,0.04921 0.66731,0.04921 0,0 -0.0132,0.506067 -0.0132,0.506067 0.2202,-0.176992 0.45448,-0.315258 0.70262,-0.412123 0.2565,-0.100135 0.52424,-0.142322 0.80207,-0.123649 0.52735,0.03544 0.9266,0.232962 1.17794,0.591135 0.25126,0.358059 0.33108,0.838269 0.24284,1.418981 0,0 -0.40517,2.66627 -0.40517,2.66627 z"
     inkscape:path-effect="#path-effect6362"
     inkscape:original-d="m 111.38372,99.472622 h -0.64767 v -2.19108 q 0,-0.26528 -0.031,-0.4961 -0.031,-0.23426 -0.11369,-0.36518 -0.0861,-0.14469 -0.24805,-0.21359 -0.16191,-0.0724 -0.4203,-0.0724 -0.26527,0 -0.55466,0.13091 -0.28939,0.13092 -0.55466,0.33418 v 2.87321 h -0.64768 v -3.84818 h 0.64768 v 0.4272 q 0.30317,-0.2515 0.62701,-0.39274 0.32384,-0.14125 0.6649,-0.14125 0.62357,0 0.95085,0.37551 0.32728,0.37552 0.32728,1.08176 z" />
  <path
     inkscape:connector-curvature="0"
     id="path6111"
     style="font-style:normal;font-weight:normal;font-size:7.05555534px;line-height:1.25;font-family:sans-serif;letter-spacing:0px;word-spacing:0px;fill:#000000;fill-opacity:1;stroke:none;stroke-width:0.26458332"
     d="m 115.97772,99.407122 c -0.15381,0.687198 -0.43538,1.185448 -0.83838,1.488978 -0.3946,0.29581 -0.84873,0.35853 -1.36872,0.19395 -0.5244,-0.16598 -0.91497,-0.48036 -1.17802,-0.93736 -0.26915,-0.448662 -0.37008,-0.976939 -0.29652,-1.59057 0.0736,-0.61363 0.30354,-1.065957 0.69619,-1.362719 0.40387,-0.306319 0.91102,-0.415914 1.51509,-0.322966 0.59899,0.09216 1.0374,0.36097 1.30889,0.812234 0.26357,0.456512 0.31529,1.031257 0.16147,1.718453 z m -0.69276,-0.159002 c 0.11026,-0.535226 0.0878,-0.952755 -0.0698,-1.250253 -0.16059,-0.296815 -0.43111,-0.476852 -0.80902,-0.542466 -0.3829,-0.06648 -0.70005,0.0056 -0.94889,0.213816 -0.24263,0.203279 -0.39793,0.553145 -0.4684,1.051903 -0.0682,0.482672 -0.0218,0.875233 0.13653,1.180105 0.15518,0.305755 0.40314,0.509845 0.74648,0.609865 0.33884,0.0987 0.62927,0.0461 0.87388,-0.16033 0.25088,-0.21138 0.43151,-0.579742 0.53923,-1.10264 z"
     inkscape:path-effect="#path-effect6364"
     inkscape:original-d="m 116.08645,98.605482 q 0,0.94051 -0.48231,1.484838 -0.48232,0.54432 -1.29192,0.54432 -0.81648,0 -1.2988,-0.54432 -0.47886,-0.544328 -0.47886,-1.484838 0,-0.94051 0.47886,-1.48483 0.48232,-0.54777 1.2988,-0.54777 0.8096,0 1.29192,0.54777 0.48231,0.54432 0.48231,1.48483 z m -0.66835,0 q 0,-0.74758 -0.29283,-1.10932 -0.29284,-0.36518 -0.81305,-0.36518 -0.52709,0 -0.81993,0.36518 -0.28939,0.36174 -0.28939,1.10932 0,0.72347 0.29284,1.09899 0.29283,0.372068 0.81648,0.372068 0.51677,0 0.8096,-0.368628 0.29628,-0.37207 0.29628,-1.10243 z" />
  <path
     inkscape:connector-curvature="0"
     id="path6113"
     style="font-style:normal;font-weight:normal;font-size:7.05555534px;line-height:1.25;font-family:sans-serif;letter-spacing:0px;word-spacing:0px;fill:#000000;fill-opacity:1;stroke:none;stroke-width:0.26458332"
     d="m 119.22139,102.99575 c 0,0 -2.70973,-1.23679 -2.70973,-1.23679 0,0 0.10243,-0.49504 0.10243,-0.49504 0,0 2.5607,-2.440488 2.5607,-2.440488 0,0 -1.91364,-0.473075 -1.91364,-0.473075 0,0 0.1157,-0.560587 0.1157,-0.560587 0,0 2.6166,0.55733 2.6166,0.55733 0,0 0.0345,0.916173 0.0345,0.916173 0,0 -2.57192,2.585017 -2.57192,2.585017 0,0 1.88249,0.48729 1.88249,0.48729 0,0 -0.11717,0.66017 -0.11717,0.66017 z"
     inkscape:path-effect="#path-effect6366"
     inkscape:original-d="m 119.61914,101.75896 h -3.10748 v -0.47887 l 2.24276,-2.828428 h -2.19453 v -0.54088 h 3.00068 l 0.21661,0.72159 -2.25309,2.838758 2.09505,-0.25994 z"
     sodipodi:nodetypes="ccccccccccc" />
  <path
     inkscape:connector-curvature="0"
     id="path6115"
     style="font-style:normal;font-weight:normal;font-size:7.05555534px;line-height:1.25;font-family:sans-serif;letter-spacing:0px;word-spacing:0px;fill:#000000;fill-opacity:1;stroke:none;stroke-width:0.26458332"
     d="m 123.55539,104.80009 c 0,0 -0.5995,-0.31735 -0.5995,-0.31735 0,0 0.069,-0.49227 0.069,-0.49227 -0.0613,0.0205 -0.14459,0.0499 -0.2494,0.0879 -0.10145,0.0353 -0.19789,0.0545 -0.2897,0.0581 -0.10783,0.008 -0.22876,-0.003 -0.36289,-0.0334 -0.13375,-0.0287 -0.28741,-0.0906 -0.46141,-0.18503 -0.32043,-0.17394 -0.75543,-0.30483 -0.9728,-0.65671 -0.22424,-0.34259 -0.25635,-0.30627 -0.25635,-0.65281 0,-0.28395 0.1535,-1.00861 0.2846,-1.14308 0.13634,-0.13976 0.33045,-0.22712 0.58242,-0.26221 0.25743,-0.0384 0.56611,-0.0313 0.92492,0.0229 0.3603,0.0523 0.74701,0.11988 1.15965,0.20365 0,0 0.0168,-0.11996 0.0168,-0.11996 0.0248,-0.1765 0.0159,-0.32923 -0.027,-0.45754 -0.041,-0.12697 -0.11175,-0.23373 -0.21229,-0.32034 -0.0964,-0.082 -0.21655,-0.14719 -0.36039,-0.19584 -0.14414,-0.0483 -0.29617,-0.087 -0.45585,-0.11641 -0.19371,-0.0357 -0.41155,-0.0506 -0.65263,-0.046 -0.23975,7e-4 -0.48704,0.0195 -0.74096,0.0554 0,0 -0.0387,-0.008 -0.0387,-0.008 0,0 0.79151,-0.825641 0.79151,-0.825641 0.1517,-0.01746 -0.41104,0.141269 -0.12935,0.138485 0.28292,-0.0044 0.56116,0.01154 0.83378,0.04918 0.31851,0.04398 0.59207,0.108786 0.81981,0.195463 0.22963,0.08599 0.42056,0.207268 0.57209,0.364834 0.14734,0.15698 0.24729,0.34788 0.30008,0.57237 0.0512,0.22662 0.0504,0.49634 -0.001,0.80759 0,0 -0.54421,3.27667 -0.54421,3.27667 z m -0.43999,-1.45494 c 0,0 0.18038,-1.28651 0.18038,-1.28651 -0.21036,-0.0503 -0.45878,-0.10585 -0.74491,-0.16712 -0.28294,-0.0617 -0.50825,-0.0946 -0.67585,-0.099 -0.19859,-0.006 -0.36088,0.0306 -0.48658,0.10906 -0.12396,0.0739 -0.18993,0.21117 -0.19908,0.41356 -0.0103,0.22859 0.047,0.4297 0.17073,0.60524 0.12198,0.1756 0.31367,0.32596 0.57642,0.44923 0.2186,0.10255 0.42384,0.14655 0.61727,0.1298 0.1958,-0.0222 0.38291,-0.0735 0.56161,-0.15428 0,0 10e-6,-2e-5 10e-6,-2e-5 z"
     inkscape:path-effect="#path-effect6368"
     inkscape:original-d="m 123.70175,103.16593 h -0.64423 v -0.40997 c -0.0574,0.0391 -0.13549,0.0942 -0.23427,0.16536 -0.0965,0.0689 -0.19062,0.12403 -0.28249,0.16537 -0.10795,0.0528 -0.23197,0.0964 -0.37207,0.13091 -0.1401,0.0367 -0.30432,0.0551 -0.49265,0.0551 -0.34681,0 -0.81408,0.10177 -1.05524,-0.1279 -0.24115,-0.22967 -0.27509,-0.17591 -0.27509,-0.5319 0,-0.29169 0.14865,-1.0903 0.27268,-1.26945 0.12632,-0.18144 0.30547,-0.32384 0.53744,-0.42719 0.23427,-0.10335 0.51562,-0.1734 0.84405,-0.21015 0.32843,-0.0367 0.68097,-0.0643 1.05764,-0.0827 v -0.0999 c 0,-0.14699 -0.0264,-0.26872 -0.0792,-0.36518 -0.0505,-0.0965 -0.12403,-0.172258 -0.22048,-0.227378 -0.0919,-0.0528 -0.20212,-0.0884 -0.33073,-0.1068 -0.12862,-0.0184 -0.26298,-0.0276 -0.40308,-0.0276 -0.16996,0 -0.35944,0.023 -0.56844,0.0689 -0.209,0.0437 -0.42489,0.10798 -0.64768,0.192928 h -0.0344 l 0.64984,-0.917948 c 0.12632,-0.0345 -0.34093,0.18758 -0.10207,0.14625 0.23886,-0.0413 0.47428,-0.062 0.70625,-0.062 0.27101,0 0.50643,0.023 0.70624,0.0689 0.20211,0.0437 0.37667,0.11946 0.52366,0.22738 0.14469,0.10565 0.25494,0.2423 0.33073,0.40996 0.0758,0.167658 0.11368,0.375508 0.11368,0.623558 z m -0.64423,-0.9474 v -1.07143 c -0.19752,0.0115 -0.43064,0.0287 -0.69935,0.0517 -0.26642,0.0229 -0.47772,0.0562 -0.6339,0.0999 -0.18603,0.0528 -0.33647,0.13548 -0.45131,0.24805 -0.11483,0.11025 -0.17225,0.26298 -0.17225,0.4582 0,0.22049 0.0666,0.387 0.19981,0.49954 0.13321,0.11024 0.33647,0.16536 0.60978,0.16536 0.22738,0 0.43524,-0.0436 0.62357,-0.13091 0.18833,-0.0896 0.36288,-0.19637 0.52365,-0.32039 z"
     sodipodi:nodetypes="ccccccsssccccscccscccccsccccccccccscsccc" />
</svg>
