<?xml version="1.0" encoding="UTF-8" standalone="no"?>
<svg
   xmlns:osb="http://www.openswatchbook.org/uri/2009/osb"
   xmlns:dc="http://purl.org/dc/elements/1.1/"
   xmlns:cc="http://creativecommons.org/ns#"
   xmlns:rdf="http://www.w3.org/1999/02/22-rdf-syntax-ns#"
   xmlns:svg="http://www.w3.org/2000/svg"
   xmlns="http://www.w3.org/2000/svg"
   xmlns:sodipodi="http://sodipodi.sourceforge.net/DTD/sodipodi-0.dtd"
   xmlns:inkscape="http://www.inkscape.org/namespaces/inkscape"
   id="svg8"
   version="1.1"
   viewBox="0 0 132.29176 41.010417"
   height="155"
   width="500"
   sodipodi:docname="logo_Online.svg"
   inkscape:version="0.92.2 (5c3e80d, 2017-08-06)">
  <sodipodi:namedview
     pagecolor="#ffffff"
     bordercolor="#666666"
     borderopacity="1"
     objecttolerance="10"
     gridtolerance="10"
     guidetolerance="10"
     inkscape:pageopacity="0"
     inkscape:pageshadow="2"
     inkscape:window-width="1366"
     inkscape:window-height="706"
     id="namedview16"
     showgrid="false"
     showguides="true"
     inkscape:guide-bbox="true"
     inkscape:zoom="0.58781078"
     inkscape:cx="435.96394"
     inkscape:cy="20.40295"
     inkscape:window-x="-8"
     inkscape:window-y="-8"
     inkscape:window-maximized="1"
     inkscape:current-layer="svg8"
     units="px"
     showborder="false"
     inkscape:snap-global="false"
     fit-margin-top="0"
     fit-margin-left="0"
     fit-margin-right="0"
     fit-margin-bottom="0" />
  <defs
     id="defs2">
    <inkscape:path-effect
       effect="perspective-envelope"
       up_left_point="118.39893,17.112467"
       up_right_point="125.6622,17.80043"
       down_left_point="118.39893,22.469588"
       down_right_point="124.07404,24.705588"
       id="path-effect6368"
       is_visible="true"
       deform_type="envelope_deformation"
       horizontal_mirror="false"
       vertical_mirror="false"
       overflow_perspective="false" />
    <inkscape:path-effect
       effect="perspective-envelope"
       up_left_point="112.72128,15.201648"
       up_right_point="117.94065,16.004317"
       down_left_point="111.21254,20.466308"
       down_right_point="116.43189,22.186318"
       id="path-effect6366"
       is_visible="true"
       deform_type="envelope_deformation"
       horizontal_mirror="false"
       vertical_mirror="false"
       overflow_perspective="false" />
    <inkscape:path-effect
       effect="perspective-envelope"
       up_left_point="103.92276,13.603071"
       up_right_point="111.14783,14.40574"
       down_left_point="103.04929,18.863698"
       down_right_point="109.32145,20.297063"
       id="path-effect6364"
       is_visible="true"
       deform_type="envelope_deformation"
       horizontal_mirror="false"
       vertical_mirror="false"
       overflow_perspective="false" />
    <inkscape:path-effect
       effect="perspective-envelope"
       up_left_point="95.915524,12.206516"
       up_right_point="103.00449,12.550531"
       down_left_point="95.915524,17.440579"
       down_right_point="101.73397,18.58723"
       id="path-effect6362"
       is_visible="true"
       deform_type="perspective"
       horizontal_mirror="false"
       vertical_mirror="false"
       overflow_perspective="false" />
    <inkscape:path-effect
       effect="perspective-envelope"
       up_left_point="91.485017,10.257162"
       up_right_point="92.982547,10.601178"
       down_left_point="90.929157,17.20613"
       down_right_point="92.903117,17.378103"
       id="path-effect6360"
       is_visible="true"
       deform_type="perspective"
       horizontal_mirror="false"
       vertical_mirror="false"
       overflow_perspective="false" />
    <inkscape:path-effect
       effect="perspective-envelope"
       up_left_point="83.490677,10.111787"
       up_right_point="89.777377,11.774461"
       down_left_point="83.490677,17.224172"
       down_right_point="88.427467,16.822855"
       id="path-effect6358"
       is_visible="true"
       deform_type="perspective"
       horizontal_mirror="false"
       vertical_mirror="false"
       overflow_perspective="false" />
    <inkscape:path-effect
       effect="perspective-envelope"
       up_left_point="76.273047,10.130071"
       up_right_point="82.024047,10.416717"
       down_left_point="76.273047,15.468939"
       down_right_point="81.865217,16.386246"
       id="path-effect6356"
       is_visible="true"
       deform_type="perspective"
       horizontal_mirror="false"
       vertical_mirror="false"
       overflow_perspective="false" />
    <inkscape:path-effect
       effect="perspective-envelope"
       up_left_point="50.282008,8.7896106"
       up_right_point="54.721198,8.7896106"
       down_left_point="50.282008,16.248736"
       down_right_point="54.721198,15.446102"
       id="path-effect6354"
       is_visible="true"
       deform_type="perspective"
       horizontal_mirror="false"
       vertical_mirror="false"
       overflow_perspective="false" />
    <inkscape:path-effect
       effect="perspective-envelope"
       up_left_point="43.602848,10.760732"
       up_right_point="49.353758,10.130071"
       down_left_point="44.158708,16.787598"
       down_right_point="50.068428,16.32891"
       id="path-effect6350"
       is_visible="true"
       deform_type="perspective"
       horizontal_mirror="false"
       vertical_mirror="false"
       overflow_perspective="false" />
    <inkscape:path-effect
       effect="perspective-envelope"
       up_left_point="35.240828,12.368347"
       up_right_point="42.676178,11.508342"
       down_left_point="35.876098,18.294202"
       down_right_point="42.676178,16.860872"
       id="path-effect6348"
       is_visible="true"
       deform_type="perspective"
       horizontal_mirror="false"
       vertical_mirror="false"
       overflow_perspective="false" />
    <inkscape:path-effect
       effect="perspective-envelope"
       up_left_point="27.948218,13.307801"
       up_right_point="33.925508,12.447797"
       down_left_point="27.948218,19.688515"
       down_right_point="34.322548,18.5992"
       id="path-effect6346"
       is_visible="true"
       deform_type="envelope_deformation"
       horizontal_mirror="false"
       vertical_mirror="false"
       overflow_perspective="false" />
    <inkscape:path-effect
       effect="perspective-envelope"
       up_left_point="22.250688,15.257328"
       up_right_point="26.334368,13.938704"
       down_left_point="22.806548,20.980678"
       down_right_point="26.254958,19.547348"
       id="path-effect6344"
       is_visible="true"
       deform_type="envelope_deformation"
       horizontal_mirror="false"
       vertical_mirror="false"
       overflow_perspective="false" />
    <inkscape:path-effect
       effect="perspective-envelope"
       up_left_point="14.322818,15.539592"
       up_right_point="19.643988,13.704944"
       down_left_point="15.037488,23.990958"
       down_right_point="20.517478,22.328278"
       id="path-effect6342"
       is_visible="true"
       deform_type="envelope_deformation"
       horizontal_mirror="false"
       vertical_mirror="false"
       overflow_perspective="false" />
    <linearGradient
       id="linearGradient6006"
       osb:paint="solid">
      <stop
         style="stop-color:#000000;stop-opacity:1;"
         offset="0"
         id="stop6004" />
    </linearGradient>
    <linearGradient
       id="linearGradient5998"
       osb:paint="solid">
      <stop
         style="stop-color:#000000;stop-opacity:1;"
         offset="0"
         id="stop5996" />
    </linearGradient>
    <linearGradient
       id="linearGradient5992"
       osb:paint="solid">
      <stop
         style="stop-color:#000000;stop-opacity:1;"
         offset="0"
         id="stop5990" />
    </linearGradient>
    <linearGradient
       id="linearGradient5984"
       osb:paint="solid">
      <stop
         style="stop-color:#000000;stop-opacity:1;"
         offset="0"
         id="stop5982" />
    </linearGradient>
    <linearGradient
       id="linearGradient4542"
       osb:paint="solid">
      <stop
         style="stop-color:#000000;stop-opacity:1;"
         offset="0"
         id="stop4540" />
    </linearGradient>
  </defs>
  <metadata
     id="metadata5">
    <rdf:RDF>
      <cc:Work
         rdf:about="">
        <dc:format>image/svg+xml</dc:format>
        <dc:type
           rdf:resource="http://purl.org/dc/dcmitype/StillImage" />
        <dc:title></dc:title>
      </cc:Work>
    </rdf:RDF>
  </metadata>
  <path
     style="color:#000000;font-style:normal;font-variant:normal;font-weight:normal;font-stretch:normal;font-size:medium;line-height:normal;font-family:sans-serif;font-variant-ligatures:normal;font-variant-position:normal;font-variant-caps:normal;font-variant-numeric:normal;font-variant-alternates:normal;font-feature-settings:normal;text-indent:0;text-align:start;text-decoration:none;text-decoration-line:none;text-decoration-style:solid;text-decoration-color:#000000;letter-spacing:normal;word-spacing:normal;text-transform:none;writing-mode:lr-tb;direction:ltr;text-orientation:mixed;dominant-baseline:auto;baseline-shift:baseline;text-anchor:start;white-space:normal;shape-padding:0;clip-rule:nonzero;display:inline;overflow:visible;visibility:visible;opacity:0.5;isolation:auto;mix-blend-mode:normal;color-interpolation:sRGB;color-interpolation-filters:linearRGB;solid-color:#000000;solid-opacity:1;vector-effect:none;fill:#030403;fill-opacity:0.98431373;fill-rule:nonzero;stroke:none;stroke-width:5.35702991;stroke-linecap:round;stroke-linejoin:round;stroke-miterlimit:4;stroke-dasharray:none;stroke-dashoffset:0;stroke-opacity:1;color-rendering:auto;image-rendering:auto;shape-rendering:auto;text-rendering:auto;enable-background:accumulate"
     d="M 69.063477,0.47248234 C 45.922978,0.49146234 24.183998,4.1322205 9.8902481,10.67121 a 3.1525832,2.2761894 0 0 0 -1.4653098,1.92241 v 3.154065 c -0.009,0.0038 -0.0181,0.0093 -0.0275,0.01311 l -0.17334,-0.06565 0.035,0.129955 C 6.2878487,16.727089 4.430139,17.664715 2.7918788,18.667335 a 3.1525832,2.2761894 0 0 0 -1.113888,1.736397 v 16.919356 a 3.1525832,2.2761894 0 0 0 5.1726377,1.74733 c 2.6012497,-1.56825 5.8182195,-3.06323 9.5770995,-4.42336 a 3.1525832,2.2761894 0 0 0 1.73996,-2.03456 v -2.99541 c 12.82676,-4.61434 31.12819,-7.39965 50.408819,-7.43518 18.54352,0.0238 36.224643,2.5895 49.008843,6.90584 v 3.85645 a 3.1525832,2.2761894 0 0 0 1.69737,2.01883 c 3.79499,1.42561 7.00253,2.98955 9.54583,4.62234 a 3.1525832,2.2761894 0 0 0 5.24654,-1.70079 V 20.359366 a 3.1525832,2.2761894 0 0 0 -1.12148,-1.740467 c -0.98298,-0.597957 -2.1054,-1.155033 -3.21007,-1.71725 l 0.0112,-0.04233 -0.0454,0.01518 v -4.307097 a 3.1525832,2.2761894 0 0 0 -1.46815,-1.923756 C 113.93231,4.1163845 92.196167,0.48555734 69.069857,0.47293034 a 3.1525832,2.2761894 0 0 0 -0.007,0 z m 0.004,2.27594746 a 71.77472,24.335285 0 0 1 57.489943,9.8185232 v 5.341111 l -0.34856,0.114224 v 11.81204 c -1.25476,-0.55556 -4.55662,-1.88678 -5.45485,-2.25549 l -0.0165,1.11201 v -1.06958 A 71.77472,24.335285 0 0 0 68.582247,19.905681 71.77472,24.335285 0 0 0 15.058088,28.171788 v -0.003 a 71.77472,24.335285 0 0 0 -0.0379,0.0152 71.77472,24.335285 0 0 0 -0.005,0.003 71.77472,24.335285 0 0 0 -3.29719,1.33629 l 3.2973,2.82167 v 0.26671 A 71.77472,24.335285 0 0 0 4.830029,37.322308 V 20.40349 a 71.77472,24.335285 0 0 1 4.0663093,-2.193222 l 2.8737897,10.75136 -0.16102,-11.986429 -0.0322,-0.01173 V 12.59424 A 71.77472,24.335285 0 0 1 69.066987,2.7490838 Z M 129.08748,19.357919 a 71.77472,24.335285 0 0 1 1.83566,1.001171 v 17.525208 a 71.77472,24.335285 0 0 0 -10.18525,-4.94038 v -0.0307 l 5.85745,-2.91061 c -0.0616,-0.0293 -0.22781,-0.0986 -0.31635,-0.13813 z"
     id="path6071"
     inkscape:connector-curvature="0" />
  <path
     style="opacity:0.5;fill:#3737c8;stroke:#030403;stroke-width:0.08241585;stroke-linecap:round;stroke-linejoin:round;stroke-miterlimit:4;stroke-dasharray:none;stroke-dashoffset:0;stroke-opacity:0.98431373"
     d="M 69.067257,5.5496122 A 71.77472,24.335285 0 0 0 11.577208,15.394803 v 11.189005 a 71.77472,24.335286 0 0 1 56.520129,-9.47931 71.77472,24.335286 0 0 1 57.974983,10.08592 V 15.168426 A 71.77472,24.335285 0 0 0 69.067257,5.5496122 Z"
     id="path6047"
     inkscape:connector-curvature="0" />
  <path
     inkscape:connector-curvature="0"
     id="path6087"
     style="font-style:normal;font-weight:normal;font-size:7.05555534px;line-height:1.25;font-family:sans-serif;letter-spacing:0px;word-spacing:0px;fill:#000000;fill-opacity:1;stroke:none;stroke-width:0.41207922"
     d="m 20.517478,22.328278 c 0,0 -5.47999,1.66268 -5.47999,1.66268 0,0 -0.71467,-8.451366 -0.71467,-8.451366 0,0 5.32117,-1.834648 5.32117,-1.834648 0,0 -0.833663,1.562598 -0.833663,1.562598 0,0 -3.325244,0.904814 -3.325244,0.904814 0,0 0.204607,2.325236 0.204607,2.325236 0,0 4.296889,-1.410518 4.296889,-1.410518 0,0 0.103247,1.019285 0.103247,1.019285 0,0 -4.311873,1.394294 -4.311873,1.394294 0,0 0.277329,3.151667 0.277329,3.151667 0,0 3.637274,-1.345513 3.637274,-1.345513 0,0 0.824924,1.021471 0.824924,1.021471 z"
     inkscape:path-effect="#path-effect6342"
     inkscape:original-d="m 20.517478,22.328278 h -6.19466 v -6.788686 h 6.19466 l -1.11171,0.974435 -3.83265,-0.172007 v 1.860141 h 4.94436 v 0.802428 h -4.94436 v 2.521269 l 4.15028,-0.17201 z"
     sodipodi:nodetypes="ccccccccccccc" />
  <path
     inkscape:connector-curvature="0"
     id="path6089"
     style="font-style:normal;font-weight:normal;font-size:7.05555534px;line-height:1.25;font-family:sans-serif;letter-spacing:0px;word-spacing:0px;fill:#000000;fill-opacity:1;stroke:none;stroke-width:0.41207922"
     d="m 26.319759,14.967973 c 0,0 -0.05688,0.01921 -0.05688,0.01921 -0.159103,0.02035 -0.314741,0.04939 -0.466773,0.08717 -0.148364,0.03314 -0.325328,0.08425 -0.530786,0.153346 -0.33102,0.111318 -0.648374,0.284643 -0.950345,0.520283 -0.29986,0.232674 -0.583891,0.500905 -0.851281,0.80484 0,0 0.272979,4.041256 0.272979,4.041256 0,0 -0.93013,0.386608 -0.93013,0.386608 0,0 -0.55586,-5.72335 -0.55586,-5.72335 0,0 1.101479,-0.355669 1.101479,-0.355669 0,0 0.0568,0.840868 0.0568,0.840868 0.410417,-0.44818 0.779802,-0.788289 1.104382,-1.021011 0.330672,-0.236941 0.670715,-0.411377 1.01835,-0.523629 0.191388,-0.0618 0.330044,-0.101624 0.415935,-0.119481 0.08585,-0.02091 0.214524,-0.04747 0.385886,-0.07971 0,0 -0.01376,0.96928 -0.01376,0.96928 z"
     inkscape:path-effect="#path-effect6344"
     inkscape:original-d="m 26.651998,16.191918 h -0.0631 q -0.26522,-0.04554 -0.5178,-0.06379 -0.24627,-0.02277 -0.58726,-0.02277 -0.54938,0 -1.06086,0.177803 -0.51149,0.17325 -0.98509,0.451375 v 3.615443 h -1.18715 v -5.092621 h 1.18715 v 0.752268 q 0.70724,-0.410322 1.24398,-0.579018 0.54306,-0.17325 1.10507,-0.17325 0.30941,0 0.44834,0.01345 0.13891,0.0093 0.41676,0.04102 z" />
  <path
     inkscape:connector-curvature="0"
     id="path6091"
     style="font-style:normal;font-weight:normal;font-size:7.05555534px;line-height:1.25;font-family:sans-serif;letter-spacing:0px;word-spacing:0px;fill:#000000;fill-opacity:1;stroke:none;stroke-width:0.41207922"
     d="m 34.322518,18.599205 c 0,0 -1.187162,0.202875 -1.187162,0.202875 0,0 -0.178992,-3.431503 -0.178992,-3.431503 -0.01445,-0.277003 -0.0462,-0.533194 -0.09492,-0.76864 -0.04882,-0.239172 -0.124792,-0.419939 -0.227869,-0.542295 -0.107502,-0.136399 -0.256775,-0.226633 -0.447823,-0.270853 -0.190931,-0.04811 -0.43585,-0.04995 -0.734981,-0.0056 -0.307108,0.04555 -0.626099,0.162288 -0.957685,0.350881 -0.332559,0.189112 -0.651301,0.415055 -0.956542,0.678134 0,0 0.07528,4.59192 0.07528,4.59192 0,0 -1.187161,0.202875 -1.187161,0.202875 0,0 -0.47644,-6.126909 -0.47644,-6.126909 0,0 1.562779,-0.226064 1.562779,-0.226064 0,0 0.01119,0.682747 0.01119,0.682747 0.34513,-0.319182 0.701576,-0.580469 1.069944,-0.784203 0.367192,-0.203138 0.745752,-0.332484 1.136563,-0.388713 0.714501,-0.102801 1.269861,0.01465 1.668437,0.350994 0.401718,0.334482 0.627404,0.867215 0.674668,1.599489 0,0 0.250716,3.884851 0.250716,3.884851 z"
     inkscape:path-effect="#path-effect6346"
     inkscape:original-d="m 34.163738,18.255185 h -1.18716 v -2.899641 c 0,-0.23407 -0.019,-0.452926 -0.0568,-0.656535 -0.0379,-0.206678 -0.10735,-0.367785 -0.20838,-0.483285 -0.10524,-0.127712 -0.2568,-0.221892 -0.45465,-0.282678 -0.19786,-0.06392 -0.45466,-0.0958 -0.77039,-0.0958 -0.32415,0 -0.66304,0.05768 -1.01666,0.17325 -0.35362,0.115535 -0.6925,0.262911 -1.01665,0.442232 v 3.802389 h -1.18716 l -0.47644,-5.092655 h 1.6636 v 0.565356 c 0.37046,-0.221892 0.75354,-0.395142 1.14926,-0.51975 0.39572,-0.124676 0.80196,-0.186945 1.21873,-0.186945 0.76196,0 1.34291,0.16566 1.74284,0.496981 0.39992,0.331286 0.59989,0.808499 0.59989,1.431571 z"
     sodipodi:nodetypes="ccscccsccccccccsccc" />
  <path
     inkscape:connector-curvature="0"
     id="path6093"
     style="font-style:normal;font-weight:normal;font-size:7.05555534px;line-height:1.25;font-family:sans-serif;letter-spacing:0px;word-spacing:0px;fill:#000000;fill-opacity:1;stroke:none;stroke-width:0.41207922"
     d="m 42.676178,14.390632 c 0,0 -5.622365,0.938282 -5.622365,0.938282 0.02848,0.336291 0.129874,0.613775 0.302783,0.832941 0.170532,0.213285 0.391115,0.371293 0.660634,0.474949 0.256391,0.101076 0.551468,0.155563 0.884342,0.164328 0.333075,0.0078 0.69148,-0.0268 1.074749,-0.102827 0.50049,-0.09929 0.992964,-0.263543 1.479035,-0.491814 0.483994,-0.229081 0.824239,-0.426152 1.02489,-0.593005 0,0 0.06133,-0.01153 0.06133,-0.01153 0,0 0.0018,0.887663 0.0018,0.887663 -0.384769,0.192913 -0.781983,0.370912 -1.192365,0.533981 -0.415334,0.165036 -0.858533,0.297551 -1.331497,0.397243 -1.241677,0.261722 -2.265239,0.247718 -3.053447,-0.0591 -0.819916,-0.322209 -1.290367,-0.936816 -1.38858,-1.852958 -0.0999,-0.931851 0.218946,-1.745972 0.953922,-2.418225 0.7339,-0.667138 1.717658,-1.070163 2.919259,-1.209145 1.07128,-0.123909 1.874423,0.0049 2.424893,0.374203 0.537832,0.357377 0.800561,0.915144 0.800561,1.668885 0,0 5e-5,0.466126 5e-5,0.466126 z m -1.171649,-0.478143 c -0.01226,-0.467497 -0.184564,-0.810799 -0.521576,-1.028082 -0.338742,-0.222103 -0.858562,-0.289832 -1.567129,-0.198348 -0.730739,0.09435 -1.316667,0.324598 -1.746124,0.690604 -0.426891,0.367461 -0.653085,0.781205 -0.676555,1.235797 0,0 4.511384,-0.699971 4.511384,-0.699971 z"
     inkscape:path-effect="#path-effect6348"
     inkscape:original-d="m 42.676188,14.284893 h -5.19695 q 0,0.46959 0.19575,0.820677 0.19576,0.3465 0.53675,0.569876 0.32836,0.218856 0.7767,0.328284 0.45465,0.109429 0.99771,0.109429 0.71987,0 1.44605,-0.205161 0.7325,-0.209714 1.04192,-0.410321 h 0.0631 v 0.934659 q -0.59989,0.182357 -1.22504,0.305447 -0.62515,0.123089 -1.31344,0.123089 -1.75548,0 -2.74056,-0.683892 -0.98508,-0.688445 -0.98508,-1.951355 0,-1.249213 0.94088,-1.983265 0.94719,-0.734018 2.48797,-0.734018 1.42711,0 2.19749,0.601821 0.7767,0.601821 0.7767,1.709695 z m -1.15558,-0.6565 q -0.006,-0.674784 -0.4736,-1.044088 -0.46097,-0.369268 -1.40817,-0.369268 -0.95351,0 -1.52183,0.405733 -0.562,0.405768 -0.63777,1.007623 z" />
  <path
     inkscape:connector-curvature="0"
     id="path6095"
     style="font-style:normal;font-weight:normal;font-size:7.05555534px;line-height:1.25;font-family:sans-serif;letter-spacing:0px;word-spacing:0px;fill:#000000;fill-opacity:1;stroke:none;stroke-width:0.41207922"
     d="m 49.85178,14.449769 c 0.06299,0.546366 -0.209874,0.750103 -0.755124,1.149165 -0.538903,0.397356 -1.277581,0.904561 -2.2683,0.981457 -0.556471,0.04319 -1.070292,0.03132 -1.541883,-0.03509 -0.464872,-0.06991 -0.690149,-0.167105 -1.008444,-0.265336 0,0 -0.266639,-1.089652 -0.266639,-1.089652 0,0 0.06517,-0.0056 0.06517,-0.0056 0.409809,0.19981 0.861477,0.349896 1.355441,0.449869 0.49667,0.09715 0.969275,0.127521 1.417118,0.09078 0.55825,-0.0458 0.989595,-0.15282 1.292095,-0.321363 0.303174,-0.168874 0.438183,-0.406236 0.40458,-0.711465 -0.02573,-0.233728 -0.131553,-0.402831 -0.317081,-0.507421 -0.18504,-0.104346 -0.525459,-0.176537 -1.019524,-0.216653 -0.182316,-0.01506 -0.420565,-0.03048 -0.714259,-0.04577 -0.288302,-0.0157 -0.55171,-0.03714 -0.790433,-0.06424 -0.658648,-0.07528 -1.133324,-0.229133 -1.426804,-0.461268 -0.288078,-0.234883 -0.448921,-0.53947 -0.483492,-0.91378 -0.02163,-0.234215 0.01804,-0.460646 0.119065,-0.679532 0.105251,-0.219295 0.274833,-0.423169 0.509021,-0.611827 0.226201,-0.184688 0.520845,-0.342836 0.884591,-0.474581 0.36892,-0.136067 0.787606,-0.229956 1.256886,-0.281418 0.440668,-0.04833 0.892378,-0.0547 1.355498,-0.0188 0.469702,0.03213 0.865281,0.09204 1.185766,0.179617 0,0 0.119215,1.0449 0.119215,1.0449 0,0 -0.06805,0.0069 -0.06805,0.0069 -0.346919,-0.150709 -0.758658,-0.26402 -1.234395,-0.340226 -0.473397,-0.07924 -0.928522,-0.0955 -1.365954,-0.0494 -0.453005,0.04774 -0.827132,0.155985 -1.123517,0.324747 -0.296063,0.165035 -0.430941,0.380166 -0.405051,0.646238 0.02295,0.235835 0.134019,0.404606 0.333644,0.506165 0.195812,0.102284 0.504287,0.1713 0.926549,0.207078 0.234422,0.01917 0.496163,0.03596 0.785434,0.05025 0.294691,0.01375 0.540651,0.02896 0.737471,0.0454 0.602188,0.04857 1.080496,0.185887 1.433192,0.412637 0.354991,0.2315 0.558162,0.564151 0.6082,0.998162 0,0 1.5e-5,3.5e-5 1.5e-5,3.5e-5 z"
     inkscape:path-effect="#path-effect6350"
     inkscape:original-d="m 49.353758,13.87778 c 0,0.465036 -0.26732,0.617138 -0.80196,0.91503 -0.53043,0.297857 -1.25661,0.67613 -2.17855,0.67613 -0.52201,0 -1.00192,-0.04409 -1.43974,-0.132232 -0.4336,-0.09118 -0.63893,-0.189947 -0.93361,-0.296339 l -0.15883,-0.961982 h 0.0631 c 0.37467,0.203643 0.79144,0.366233 1.2503,0.487804 0.45887,0.118605 0.89879,0.177804 1.31976,0.177804 0.52202,0 0.93036,-0.06072 1.22504,-0.182357 0.29469,-0.121606 0.44203,-0.313037 0.44203,-0.574464 0,-0.200607 -0.08,-0.352571 -0.23996,-0.455893 -0.15997,-0.103357 -0.46728,-0.1915 -0.92193,-0.264463 -0.1684,-0.02725 -0.38941,-0.05927 -0.66304,-0.09566 -0.26943,-0.03643 -0.5157,-0.07597 -0.73882,-0.11857 -0.61883,-0.118606 -1.05875,-0.29182 -1.31975,-0.51975 -0.2568,-0.231 -0.3852,-0.513678 -0.3852,-0.848034 0,-0.209715 0.0589,-0.407286 0.17681,-0.592679 0.12209,-0.185428 0.30521,-0.351088 0.54937,-0.496946 0.23575,-0.142892 0.53464,-0.255356 0.89668,-0.337392 0.36625,-0.08511 0.7746,-0.127713 1.22504,-0.127713 0.42098,0 0.84616,0.03798 1.27556,0.113948 0.4336,0.07289 0.79354,0.162624 1.0798,0.268982 v 0.916409 h -0.0631 c -0.3031,-0.161106 -0.67146,-0.296339 -1.10506,-0.405767 -0.43361,-0.112498 -0.85879,-0.168696 -1.27556,-0.168696 -0.43361,0 -0.79985,0.06075 -1.09875,0.182357 -0.29889,0.118606 -0.44834,0.296374 -0.44834,0.533445 0,0.209715 0.0905,0.367786 0.27153,0.474178 0.17681,0.106392 0.46308,0.192983 0.85879,0.259875 0.21891,0.03639 0.46308,0.0729 0.7325,0.109428 0.27364,0.03639 0.50096,0.0699 0.68198,0.100321 0.55148,0.09118 0.97667,0.247696 1.27556,0.469589 0.29889,0.224928 0.44834,0.522785 0.44834,0.893606 z"
     sodipodi:nodetypes="ccscccccscscccccscccscccccscsccccccc" />
  <path
     inkscape:connector-curvature="0"
     id="path6097"
     style="font-style:normal;font-weight:normal;font-size:7.05555534px;line-height:1.25;font-family:sans-serif;letter-spacing:0px;word-spacing:0px;fill:#000000;fill-opacity:1;stroke:none;stroke-width:0.41207922"
     d="m 54.721198,15.300247 c -0.200185,0.0781 -0.421776,0.152886 -0.665487,0.224387 -0.242986,0.07158 -0.46318,0.125538 -0.659736,0.161077 -0.702184,0.126959 -1.334851,0.152942 -1.723047,-0.08057 -0.395908,-0.238116 -0.511419,-0.773773 -0.511419,-1.450469 0,0 0,-2.97003 0,-2.97003 0,0 -0.879501,0.05217 -0.879501,0.05217 0,0 0,-0.807215 0,-0.807215 0,0 0.879501,-0.03496 0.879501,-0.03496 0,0 0,-1.6050224 0,-1.6050224 0,0 1.235199,0 1.235199,0 0,0 0,1.5559204 0,1.5559204 0,0 2.32449,-0.0924 2.32449,-0.0924 0,0 0,0.720355 0,0.720355 0,0 -2.32449,0.137887 -2.32449,0.137887 0,0 0,2.467182 0,2.467182 0,0.284353 0.0081,0.506216 0.0255,0.665348 0.01702,0.155787 0.07621,0.295557 0.177289,0.418879 0.09222,0.114436 0.2173,0.189418 0.374566,0.225285 0.160082,0.03168 0.399752,0.02182 0.716015,-0.0289 0.181751,-0.02915 0.369553,-0.07928 0.563199,-0.150345 0.191646,-0.07325 0.328429,-0.129886 0.411514,-0.170334 0,0 0.0564,-0.0088 0.0564,-0.0088 0,0 9e-6,0.770552 9e-6,0.770552 z"
     inkscape:path-effect="#path-effect6354"
     inkscape:original-d="m 54.721198,15.300244 c -0.22311,0.04247 -0.46728,0.07741 -0.73249,0.104805 -0.26101,0.02725 -0.49465,0.04105 -0.70093,0.04105 -0.71987,0 -1.34654,-0.08245 -1.72121,-0.362127 -0.37467,-0.279643 -0.4826,-0.785282 -0.4826,-1.402317 v -2.708176 h -0.80196 v -0.720355 h 0.80196 V 8.7896086 h 1.18715 v 1.4635154 h 2.45008 v 0.720355 h -2.45008 v 2.320658 c 0,0.267465 0.008,0.477179 0.0253,0.629178 0.0169,0.148929 0.0758,0.28875 0.1768,0.419429 0.0926,0.12164 0.21891,0.211267 0.37888,0.269017 0.16418,0.05464 0.41256,0.08204 0.74513,0.08204 0.19365,0 0.39572,-0.01966 0.60621,-0.05927 0.21048,-0.0425 0.36204,-0.07745 0.45465,-0.10484 h 0.0631 z"
     sodipodi:nodetypes="ccscsccccccccccscccscccc" />
  <path
     inkscape:connector-curvature="0"
     id="path6099"
     style="font-style:normal;font-weight:normal;font-size:7.05555534px;line-height:1.25;font-family:sans-serif;letter-spacing:0px;word-spacing:0px;fill:#000000;fill-opacity:1;stroke:none;stroke-width:0.41207922"
     d="m 62.172478,12.801782 q 0,1.24466 -0.88405,1.965051 -0.88405,0.720322 -2.36799,0.720322 -1.49657,0 -2.38062,-0.720322 -0.87774,-0.720391 -0.87774,-1.965051 0,-1.24466 0.87774,-1.965015 0.88405,-0.724911 2.38062,-0.724911 1.48394,0 2.36799,0.724911 0.88405,0.720355 0.88405,1.965015 z m -1.22504,0 q 0,-0.989338 -0.53675,-1.46807 -0.53674,-0.483284 -1.49025,-0.483284 -0.96614,0 -1.50289,0.483284 -0.53043,0.478732 -0.53043,1.46807 0,0.957428 0.53675,1.454409 0.53674,0.492392 1.49657,0.492392 0.94719,0 1.48394,-0.487838 0.54306,-0.492393 0.54306,-1.458963 z" />
  <path
     inkscape:connector-curvature="0"
     id="path6101"
     style="font-style:normal;font-weight:normal;font-size:7.05555534px;line-height:1.25;font-family:sans-serif;letter-spacing:0px;word-spacing:0px;fill:#000000;fill-opacity:1;stroke:none;stroke-width:0.41207922"
     d="m 74.852267,15.34585 h -6.19466 V 8.5571617 h 6.19466 v 0.8024275 h -4.94435 v 1.8601418 h 4.94435 v 0.802427 h -4.94435 v 2.521265 h 4.94435 z" />
  <path
     inkscape:connector-curvature="0"
     id="path6103"
     style="font-style:normal;font-weight:normal;font-size:7.05555534px;line-height:1.25;font-family:sans-serif;letter-spacing:0px;word-spacing:0px;fill:#000000;fill-opacity:1;stroke:none;stroke-width:0.41207922"
     d="m 81.911628,14.641905 c -0.01364,0.512792 -0.327931,0.88656 -0.930969,1.118571 -0.583101,0.226833 -1.353511,0.25865 -2.294958,0.104221 -0.517531,-0.08489 -0.983505,-0.205642 -1.400819,-0.361624 -0.406556,-0.155808 -0.742904,-0.306553 -1.011835,-0.452963 0,0 0,-0.946193 0,-0.946193 0,0 0.05761,0.0078 0.05761,0.0078 0.344651,0.249196 0.733488,0.466232 1.168722,0.651054 0.442795,0.184939 0.87514,0.309587 1.296633,0.37233 0.532853,0.07932 0.958836,0.07859 1.272431,-0.0043 0.317904,-0.08406 0.481329,-0.266763 0.487006,-0.547793 0.0044,-0.216163 -0.07929,-0.391124 -0.25024,-0.523977 -0.169961,-0.132116 -0.495713,-0.26584 -0.971388,-0.39988 -0.17398,-0.04937 -0.400609,-0.109459 -0.678472,-0.17993 -0.270639,-0.06923 -0.515449,-0.138309 -0.735158,-0.207344 -0.599553,-0.188761 -1.016939,-0.410373 -1.261234,-0.666584 -0.238398,-0.256826 -0.356864,-0.552824 -0.356818,-0.890317 2.9e-5,-0.212236 0.05464,-0.408458 0.164366,-0.589219 0.114383,-0.181687 0.287123,-0.340608 0.51959,-0.476996 0.226956,-0.135249 0.517879,-0.236743 0.875053,-0.304152 0.367098,-0.07155 0.78276,-0.09629 1.249109,-0.07305 0.443911,0.02213 0.89968,0.08689 1.367484,0.195427 0.480991,0.107351 0.886182,0.230921 1.21178,0.370437 0,0 -0.02606,1.038101 -0.02606,1.038101 0,0 -0.07237,-0.0057 -0.07237,-0.0057 -0.340655,-0.207274 -0.750808,-0.388591 -1.22706,-0.543679 -0.467917,-0.155717 -0.919794,-0.247079 -1.355903,-0.275725 -0.445716,-0.02928 -0.816558,0.01078 -1.115478,0.118689 -0.294921,0.103323 -0.44159,0.277677 -0.442937,0.523666 -0.0012,0.217147 0.08568,0.388335 0.261438,0.514488 0.172742,0.126541 0.45547,0.243678 0.85199,0.352083 0.22203,0.0601 0.472034,0.123346 0.750824,0.189874 0.286279,0.0676 0.5265,0.127766 0.719322,0.180212 0.596316,0.160425 1.063261,0.381594 1.393234,0.662996 0.333445,0.287801 0.496034,0.638797 0.485107,1.049473 0,0 -1e-6,3.4e-5 -1e-6,3.4e-5 z"
     inkscape:path-effect="#path-effect6356"
     inkscape:original-d="m 81.785737,13.87778 q 0,0.697553 -0.80196,1.144339 -0.79564,0.446821 -2.17855,0.446821 -0.78301,0 -1.43973,-0.132232 -0.65041,-0.136785 -1.09243,-0.296339 v -0.961982 h 0.0631 q 0.56201,0.305447 1.2503,0.487804 0.68829,0.177804 1.31976,0.177804 0.78301,0 1.22503,-0.182357 0.44203,-0.182358 0.44203,-0.574464 0,-0.300893 -0.23996,-0.455893 -0.23995,-0.155035 -0.92193,-0.264463 -0.25259,-0.04102 -0.66304,-0.09566 -0.40414,-0.05465 -0.73882,-0.11857 -0.92825,-0.177839 -1.31976,-0.51975 -0.38518,-0.3465 -0.38518,-0.848034 0,-0.314589 0.17681,-0.592679 0.18313,-0.278124 0.54937,-0.496946 0.35362,-0.214303 0.89667,-0.337392 0.54938,-0.127713 1.22505,-0.127713 0.63146,0 1.27556,0.113948 0.65039,0.109428 1.07979,0.268982 v 0.916409 h -0.0631 q -0.45465,-0.241625 -1.10506,-0.405767 -0.65041,-0.168696 -1.27556,-0.168696 -0.65041,0 -1.09874,0.182357 -0.44834,0.177839 -0.44834,0.533445 0,0.314589 0.27152,0.474178 0.26523,0.159554 0.85881,0.259875 0.32835,0.05465 0.73249,0.109428 0.41044,0.05464 0.68198,0.100321 0.82722,0.13675 1.27555,0.469589 0.44834,0.337392 0.44834,0.893606 z" />
  <path
     inkscape:connector-curvature="0"
     id="path6105"
     style="font-style:normal;font-weight:normal;font-size:7.05555534px;line-height:1.25;font-family:sans-serif;letter-spacing:0px;word-spacing:0px;fill:#000000;fill-opacity:1;stroke:none;stroke-width:0.41207922"
     d="m 89.200857,13.930529 c -0.08125,0.30386 -0.207463,0.570792 -0.379167,0.805635 -0.16967,0.230642 -0.456808,0.538539 -0.699597,0.695734 -0.228561,0.150577 -0.406366,0.152782 -0.701086,0.238905 -0.298617,0.08618 -0.61598,0.132467 -0.956116,0.13742 -0.307013,0.0045 -0.59264,-0.01268 -0.855284,-0.05238 -0.267735,-0.04119 -0.548884,-0.108635 -0.845579,-0.20429 0,0 -0.101783,1.577381 -0.101783,1.577381 0,0 -1.171568,0.09524 -1.171568,0.09524 0,0 0,-6.916963 0,-6.916963 0,0 1.585659,0.404302 1.585659,0.404302 0,0 -0.04176,0.647149 -0.04176,0.647149 0.390286,-0.141012 0.811647,-0.231422 1.257942,-0.272393 0.435595,-0.04188 0.870252,-0.0033 1.298346,0.109917 0.758511,0.200607 1.250678,0.567503 1.510484,1.08025 0.242739,0.469957 0.268626,1.021624 0.09952,1.654046 0,0 -1.4e-5,4.9e-5 -1.4e-5,4.9e-5 z m -0.865353,-0.07595 c 0.112345,-0.496956 0.08805,-0.902348 -0.08364,-1.210658 -0.181111,-0.325296 -0.53648,-0.550028 -1.084716,-0.666018 -0.327164,-0.06922 -0.676633,-0.08535 -1.047118,-0.04544 -0.382069,0.04115 -0.762536,0.123432 -1.138475,0.24786 0,0 -0.180312,2.794394 -0.180312,2.794394 0.334515,0.10128 0.610872,0.168906 0.835318,0.205495 0.222209,0.03569 0.468391,0.05553 0.73695,0.06026 0.551245,0.0097 0.980422,-0.09979 1.310187,-0.326139 0.326173,-0.223889 0.54131,-0.571005 0.651794,-1.059727 0,0 7e-6,-2.9e-5 7e-6,-2.9e-5 z"
     inkscape:path-effect="#path-effect6358"
     inkscape:original-d="m 89.697977,12.737961 c 0,0.413357 -0.0821,0.791767 -0.24627,1.135231 -0.16423,0.340428 -0.47514,0.801186 -0.77401,1.038257 -0.27786,0.224928 -0.5268,0.227688 -0.90567,0.35233 -0.37467,0.121606 -0.77252,0.182357 -1.19348,0.182357 -0.36623,0 -0.69881,-0.02898 -0.99771,-0.08669 -0.29468,-0.05782 -0.59568,-0.147445 -0.90299,-0.268982 v 2.133712 h -1.18715 V 10.25313 h 1.18715 v 0.533445 c 0.31573,-0.1915 0.66936,-0.351054 1.06085,-0.478731 0.3957,-0.130749 0.8167,-0.196019 1.26293,-0.196019 0.85036,0 1.5113,0.232517 1.9828,0.697553 0.4757,0.462 0.71355,1.104839 0.71355,1.928517 z m -1.22503,0.02277 c 0,-0.613965 -0.14517,-1.072928 -0.43571,-1.376891 -0.29046,-0.30393 -0.73672,-0.455928 -1.33871,-0.455928 -0.34098,0 -0.68409,0.05319 -1.02928,0.159589 -0.3452,0.106392 -0.67567,0.246212 -0.9914,0.419428 v 2.886014 c 0.33678,0.109428 0.62515,0.183875 0.8651,0.22341 0.24418,0.03957 0.51991,0.05927 0.82721,0.05927 0.66094,0 1.17663,-0.161107 1.54709,-0.483285 0.37046,-0.322179 0.5557,-0.799357 0.5557,-1.43157 z"
     sodipodi:nodetypes="scccsccccccccscsscssscccsssc" />
  <path
     inkscape:connector-curvature="0"
     id="path6107"
     style="font-style:normal;font-weight:normal;font-size:7.05555534px;line-height:1.25;font-family:sans-serif;letter-spacing:0px;word-spacing:0px;fill:#000000;fill-opacity:1;stroke:none;stroke-width:0.41207922"
     d="m 92.974372,11.298685 c 0,0 -1.546076,-0.332442 -1.546076,-0.332442 0,0 0.05672,-0.709081 0.05672,-0.709081 0,0 1.49753,0.344016 1.49753,0.344016 0,0 -0.0082,0.697507 -0.0082,0.697507 z m -0.178678,6.070059 c 0,0 -1.750319,-0.152489 -1.750319,-0.152489 0,0 0.418258,-5.507037 0.418258,-5.507037 0,0 1.41494,0.283049 1.41494,0.283049 0,0 -0.08288,5.376477 -0.08288,5.376477 z"
     inkscape:path-effect="#path-effect6360"
     inkscape:original-d="m 92.823727,11.146215 h -1.33871 v -0.889052 h 1.33871 z m -0.0757,5.945243 h -1.18715 v -5.092655 h 1.18715 z" />
  <path
     inkscape:connector-curvature="0"
     id="path6109"
     style="font-style:normal;font-weight:normal;font-size:7.05555534px;line-height:1.25;font-family:sans-serif;letter-spacing:0px;word-spacing:0px;fill:#000000;fill-opacity:1;stroke:none;stroke-width:0.41207922"
     d="m 101.73395,18.587225 c 0,0 -1.32067,-0.260265 -1.32067,-0.260265 0,0 0.47817,-2.966751 0.47817,-2.966751 0.0431,-0.267198 0.0608,-0.523778 0.0525,-0.768609 -0.008,-0.25165 -0.0638,-0.454647 -0.16813,-0.606766 -0.10751,-0.167854 -0.27864,-0.299422 -0.51177,-0.39376 -0.23083,-0.09742 -0.53519,-0.160102 -0.908908,-0.188186 -0.3763,-0.02828 -0.767564,0.0116 -1.170326,0.116897 -0.39129,0.102344 -0.757871,0.23916 -1.100072,0.408667 0,0 -0.134493,3.715979 -0.134493,3.715979 0,0 -1.034707,-0.20391 -1.034707,-0.20391 0,0 0,-5.067788 0,-5.067788 0,0 1.223139,0.06513 1.223139,0.06513 0,0 -0.02424,0.669729 -0.02424,0.669729 0.403606,-0.234233 0.833037,-0.417212 1.287863,-0.545397 0.470134,-0.132531 0.960883,-0.188367 1.470134,-0.163654 0.96659,0.04691 1.69839,0.308302 2.15908,0.782305 0.46053,0.473869 0.60684,1.109378 0.4451,1.877878 0,0 -0.74265,3.528505 -0.74265,3.528505 z"
     inkscape:path-effect="#path-effect6362"
     inkscape:original-d="m 101.81337,17.440579 h -1.18715 v -2.899675 q 0,-0.351053 -0.0568,-0.656535 -0.0568,-0.31 -0.20839,-0.483284 -0.15781,-0.191465 -0.454647,-0.282644 -0.29678,-0.0958 -0.770387,-0.0958 -0.486217,0 -1.016644,0.173215 -0.530437,0.173284 -1.016654,0.442267 v 3.802388 h -1.187154 v -5.092655 h 1.187144 v 0.565356 q 0.555687,-0.332838 1.149264,-0.519749 0.593567,-0.186946 1.218714,-0.186946 1.142964,0 1.742834,0.496947 0.59989,0.49698 0.59989,1.431605 z" />
  <path
     inkscape:connector-curvature="0"
     id="path6111"
     style="font-style:normal;font-weight:normal;font-size:7.05555534px;line-height:1.25;font-family:sans-serif;letter-spacing:0px;word-spacing:0px;fill:#000000;fill-opacity:1;stroke:none;stroke-width:0.41207922"
     d="m 110.23387,17.353898 c -0.28194,0.90943 -0.79803,1.568824 -1.53671,1.970532 -0.72328,0.391453 -1.55567,0.47445 -2.50876,0.256643 -0.9612,-0.219661 -1.6771,-0.635706 -2.15925,-1.240483 -0.49334,-0.593779 -0.67833,-1.292906 -0.5435,-2.104977 0.13484,-0.812071 0.55636,-1.410678 1.27605,-1.803415 0.74028,-0.405378 1.66986,-0.550412 2.77709,-0.427405 1.09788,0.12197 1.90146,0.477704 2.39909,1.074904 0.48311,0.604152 0.57792,1.36477 0.29599,2.274201 z m -1.26981,-0.210428 c 0.20209,-0.708314 0.161,-1.260871 -0.12796,-1.654584 -0.29434,-0.392785 -0.7902,-0.631036 -1.48287,-0.717871 -0.70183,-0.08798 -1.28315,0.0074 -1.73927,0.282933 -0.44471,0.269025 -0.72935,0.732037 -0.85853,1.392088 -0.12501,0.638783 -0.04,1.158301 0.25025,1.561757 0.28444,0.404641 0.73892,0.67473 1.36826,0.807094 0.62106,0.130622 1.15339,0.06095 1.60174,-0.212167 0.45985,-0.27975 0.79093,-0.767238 0.98838,-1.45925 z"
     inkscape:path-effect="#path-effect6364"
     inkscape:original-d="m 110.43317,16.292998 q 0,1.244659 -0.88405,1.96505 -0.88407,0.720322 -2.368,0.720322 -1.49656,0 -2.38063,-0.720322 -0.87771,-0.720391 -0.87771,-1.96505 0,-1.24466 0.87771,-1.965016 0.88407,-0.724911 2.38063,-0.724911 1.48393,0 2.368,0.724911 0.88405,0.720356 0.88405,1.965016 z m -1.22506,0 q 0,-0.989339 -0.53673,-1.46807 -0.53675,-0.483251 -1.49026,-0.483251 -0.96612,0 -1.50289,0.483251 -0.53042,0.478731 -0.53042,1.46807 0,0.957462 0.53675,1.454408 0.53673,0.492393 1.49656,0.492393 0.9472,0 1.48393,-0.487839 0.54306,-0.492393 0.54306,-1.458962 z" />
  <path
     inkscape:connector-curvature="0"
     id="path6113"
     style="font-style:normal;font-weight:normal;font-size:7.05555534px;line-height:1.25;font-family:sans-serif;letter-spacing:0px;word-spacing:0px;fill:#000000;fill-opacity:1;stroke:none;stroke-width:0.41207922"
     d="m 116.17929,22.103074 c 0,0 -4.96675,-1.636766 -4.96675,-1.636766 0,0 0.18775,-0.655134 0.18775,-0.655134 0,0 4.6936,-3.229718 4.6936,-3.229718 0,0 -3.5076,-0.626072 -3.5076,-0.626072 0,0 0.21207,-0.741883 0.21207,-0.741883 0,0 4.79608,0.737573 4.79608,0.737573 0,0 0.0633,1.212455 0.0633,1.212455 0,0 -4.71416,3.420977 -4.71416,3.420977 0,0 3.45047,0.644919 3.45047,0.644919 0,0 -0.21476,0.873649 -0.21476,0.873649 z"
     inkscape:path-effect="#path-effect6366"
     inkscape:original-d="m 116.90835,20.466308 h -5.6958 v -0.633729 l 4.11084,-3.743121 h -4.02245 v -0.715802 h 5.50006 l 0.39703,0.954944 -4.12977,3.756782 3.84009,-0.343981 z"
     sodipodi:nodetypes="ccccccccccc" />
  <path
     inkscape:connector-curvature="0"
     id="path6115"
     style="font-style:normal;font-weight:normal;font-size:7.05555534px;line-height:1.25;font-family:sans-serif;letter-spacing:0px;word-spacing:0px;fill:#000000;fill-opacity:1;stroke:none;stroke-width:0.41207922"
     d="m 124.12328,24.490972 c 0,0 -1.09884,-0.419979 -1.09884,-0.419979 0,0 0.12651,-0.651469 0.12651,-0.651469 -0.11236,0.02703 -0.26506,0.06612 -0.45715,0.116378 -0.18595,0.04669 -0.36271,0.07215 -0.531,0.07682 -0.19765,0.01085 -0.4193,-0.004 -0.66515,-0.04416 -0.24518,-0.03797 -0.52681,-0.119891 -0.84575,-0.244898 -0.58735,-0.230201 -1.38465,-0.403416 -1.78308,-0.869121 -0.41103,-0.453364 -0.46989,-0.405304 -0.46989,-0.86391 0,-0.375784 0.28135,-1.334773 0.52165,-1.512759 0.24992,-0.184948 0.6057,-0.300576 1.06756,-0.346985 0.47186,-0.05086 1.03765,-0.04142 1.69532,0.03032 0.66043,0.06915 1.36926,0.158626 2.12561,0.269476 0,0 0.0308,-0.158736 0.0308,-0.158736 0.0454,-0.233589 0.0293,-0.435666 -0.0495,-0.605518 -0.0751,-0.168042 -0.20482,-0.309323 -0.38912,-0.423918 -0.17663,-0.10856 -0.39692,-0.194785 -0.66058,-0.259176 -0.26418,-0.06402 -0.54285,-0.115086 -0.83552,-0.154056 -0.35508,-0.04728 -0.75437,-0.06708 -1.19626,-0.06088 -0.43948,9.47e-4 -0.89274,0.0259 -1.35814,0.07332 0,0 -0.0709,-0.01058 -0.0709,-0.01058 0,0 1.45079,-1.092625 1.45079,-1.092625 0.27805,-0.02313 -0.75343,0.186927 -0.23709,0.183258 0.51855,-0.0058 1.02857,0.01528 1.52828,0.06509 0.5838,0.0582 1.08523,0.143873 1.50264,0.258667 0.42093,0.113784 0.7709,0.274271 1.04863,0.482793 0.27007,0.207754 0.45329,0.460384 0.55005,0.757493 0.0939,0.29989 0.0923,0.656862 -0.002,1.068736 0,0 -0.99748,4.336418 -0.99748,4.336418 z m -0.80647,-1.925485 c 0,0 0.33063,-1.702559 0.33063,-1.702559 -0.38556,-0.06656 -0.84091,-0.140071 -1.36537,-0.221174 -0.51864,-0.08156 -0.9316,-0.125221 -1.23882,-0.130972 -0.36401,-0.0077 -0.66148,0.04056 -0.89187,0.144345 -0.22722,0.09772 -0.34813,0.279448 -0.3649,0.5473 -0.019,0.302501 0.0863,0.568698 0.31292,0.800976 0.2236,0.232392 0.57494,0.431392 1.05655,0.594528 0.40068,0.135723 0.77689,0.193954 1.13143,0.171781 0.3589,-0.02937 0.70184,-0.09722 1.02942,-0.204177 0,0 1e-5,-4.8e-5 1e-5,-4.8e-5 z"
     inkscape:path-effect="#path-effect6368"
     inkscape:original-d="m 124.39151,22.328278 h -1.18082 v -0.54255 c -0.10519,0.0517 -0.24836,0.12468 -0.42941,0.21882 -0.17688,0.0912 -0.34939,0.16414 -0.51778,0.21886 -0.19787,0.0699 -0.42519,0.12757 -0.68198,0.17325 -0.2568,0.0486 -0.5578,0.0729 -0.903,0.0729 -0.63569,0 -1.49215,0.13468 -1.93418,-0.16929 -0.44202,-0.30392 -0.50423,-0.23279 -0.50423,-0.7039 0,-0.38603 0.27247,-1.442882 0.4998,-1.679988 0.23155,-0.240107 0.55991,-0.428571 0.9851,-0.565322 0.42941,-0.136785 0.9451,-0.229482 1.54708,-0.278124 0.602,-0.04857 1.2482,-0.08511 1.9386,-0.109463 v -0.132197 c 0,-0.194535 -0.0483,-0.355607 -0.14518,-0.483285 -0.0926,-0.127712 -0.22733,-0.227964 -0.40412,-0.300893 -0.16844,-0.06989 -0.37047,-0.116983 -0.60621,-0.141339 -0.23575,-0.02449 -0.48202,-0.03653 -0.7388,-0.03653 -0.31154,0 -0.65884,0.03036 -1.04193,0.09118 -0.38309,0.05785 -0.7788,0.142926 -1.18715,0.255321 h -0.0631 l 1.19111,-1.214784 c 0.23153,-0.04568 -0.62491,0.248215 -0.18709,0.193535 0.4378,-0.05465 0.86932,-0.08204 1.29451,-0.08204 0.49674,0 0.92825,0.03036 1.29448,0.09118 0.37046,0.05782 0.69042,0.158071 0.95984,0.300893 0.26521,0.139821 0.4673,0.320661 0.60622,0.542553 0.13895,0.221857 0.20836,0.496946 0.20836,0.825196 z m -1.18082,-1.2538 V 19.65657 c -0.36204,0.01518 -0.78933,0.03798 -1.28186,0.06841 -0.48834,0.03036 -0.87563,0.07438 -1.16191,0.132197 -0.34098,0.06989 -0.61673,0.179321 -0.82722,0.328284 -0.21048,0.145893 -0.31572,0.348017 -0.31572,0.606377 0,0.29178 0.12214,0.51216 0.36623,0.66109 0.24417,0.14589 0.61673,0.21885 1.11769,0.21885 0.41678,0 0.79778,-0.0577 1.14298,-0.17325 0.34519,-0.11857 0.66511,-0.25987 0.95981,-0.42401 z"
     sodipodi:nodetypes="ccccccsssccccscccscccccsccccccccccscsccc" />
</svg>
